%TF.GenerationSoftware,KiCad,Pcbnew,8.0.2*%
%TF.CreationDate,2024-05-27T21:53:30-04:00*%
%TF.ProjectId,discipline-pcb,64697363-6970-46c6-996e-652d7063622e,1.0*%
%TF.SameCoordinates,Original*%
%TF.FileFunction,Soldermask,Top*%
%TF.FilePolarity,Negative*%
%FSLAX46Y46*%
G04 Gerber Fmt 4.6, Leading zero omitted, Abs format (unit mm)*
G04 Created by KiCad (PCBNEW 8.0.2) date 2024-05-27 21:53:30*
%MOMM*%
%LPD*%
G01*
G04 APERTURE LIST*
%ADD10C,1.015810*%
%ADD11C,0.010000*%
%ADD12C,0.400000*%
%ADD13C,1.700000*%
%ADD14C,4.000000*%
%ADD15C,2.200000*%
%ADD16C,3.050000*%
%ADD17C,4.400000*%
%ADD18C,3.987800*%
%ADD19C,3.048000*%
%ADD20R,1.600000X1.600000*%
%ADD21O,1.600000X1.600000*%
%ADD22C,1.400000*%
%ADD23O,1.400000X1.400000*%
%ADD24C,2.000000*%
%ADD25R,1.800000X1.800000*%
%ADD26C,1.800000*%
%ADD27R,1.200000X1.200000*%
%ADD28C,1.200000*%
%ADD29C,1.600000*%
%ADD30O,0.650000X1.000000*%
%ADD31O,0.900000X2.400000*%
%ADD32O,0.900000X1.700000*%
%ADD33C,1.500000*%
%ADD34R,1.700000X1.700000*%
G04 APERTURE END LIST*
D10*
X146805881Y-64151327D02*
G75*
G02*
X145790071Y-64151327I-507905J0D01*
G01*
X145790071Y-64151327D02*
G75*
G02*
X146805881Y-64151327I507905J0D01*
G01*
X191517525Y-61110747D02*
G75*
G02*
X190501715Y-61110747I-507905J0D01*
G01*
X190501715Y-61110747D02*
G75*
G02*
X191517525Y-61110747I507905J0D01*
G01*
X70614604Y-64157437D02*
G75*
G02*
X69598794Y-64157437I-507905J0D01*
G01*
X69598794Y-64157437D02*
G75*
G02*
X70614604Y-64157437I507905J0D01*
G01*
X92963905Y-62633242D02*
G75*
G02*
X91948095Y-62633242I-507905J0D01*
G01*
X91948095Y-62633242D02*
G75*
G02*
X92963905Y-62633242I507905J0D01*
G01*
X222762932Y-64163643D02*
G75*
G02*
X221747122Y-64163643I-507905J0D01*
G01*
X221747122Y-64163643D02*
G75*
G02*
X222762932Y-64163643I507905J0D01*
G01*
X105663905Y-62630530D02*
G75*
G02*
X104648095Y-62630530I-507905J0D01*
G01*
X104648095Y-62630530D02*
G75*
G02*
X105663905Y-62630530I507905J0D01*
G01*
X159512709Y-64150515D02*
G75*
G02*
X158496899Y-64150515I-507905J0D01*
G01*
X158496899Y-64150515D02*
G75*
G02*
X159512709Y-64150515I507905J0D01*
G01*
X89913832Y-61110761D02*
G75*
G02*
X88898022Y-61110761I-507905J0D01*
G01*
X88898022Y-61110761D02*
G75*
G02*
X89913832Y-61110761I507905J0D01*
G01*
X64520622Y-61115929D02*
G75*
G02*
X63504812Y-61115929I-507905J0D01*
G01*
X63504812Y-61115929D02*
G75*
G02*
X64520622Y-61115929I507905J0D01*
G01*
X137160596Y-65682618D02*
G75*
G02*
X136144786Y-65682618I-507905J0D01*
G01*
X136144786Y-65682618D02*
G75*
G02*
X137160596Y-65682618I507905J0D01*
G01*
X111765263Y-65678627D02*
G75*
G02*
X110749453Y-65678627I-507905J0D01*
G01*
X110749453Y-65678627D02*
G75*
G02*
X111765263Y-65678627I507905J0D01*
G01*
X108709916Y-64156590D02*
G75*
G02*
X107694106Y-64156590I-507905J0D01*
G01*
X107694106Y-64156590D02*
G75*
G02*
X108709916Y-64156590I507905J0D01*
G01*
X162564921Y-65679585D02*
G75*
G02*
X161549111Y-65679585I-507905J0D01*
G01*
X161549111Y-65679585D02*
G75*
G02*
X162564921Y-65679585I507905J0D01*
G01*
X178814016Y-61115427D02*
G75*
G02*
X177798206Y-61115427I-507905J0D01*
G01*
X177798206Y-61115427D02*
G75*
G02*
X178814016Y-61115427I507905J0D01*
G01*
X115319645Y-61111675D02*
G75*
G02*
X114303835Y-61111675I-507905J0D01*
G01*
X114303835Y-61111675D02*
G75*
G02*
X115319645Y-61111675I507905J0D01*
G01*
X121413627Y-64153183D02*
G75*
G02*
X120397817Y-64153183I-507905J0D01*
G01*
X120397817Y-64153183D02*
G75*
G02*
X121413627Y-64153183I507905J0D01*
G01*
X134117158Y-64152847D02*
G75*
G02*
X133101348Y-64152847I-507905J0D01*
G01*
X133101348Y-64152847D02*
G75*
G02*
X134117158Y-64152847I507905J0D01*
G01*
X140711899Y-61109819D02*
G75*
G02*
X139696089Y-61109819I-507905J0D01*
G01*
X139696089Y-61109819D02*
G75*
G02*
X140711899Y-61109819I507905J0D01*
G01*
X200663719Y-65681325D02*
G75*
G02*
X199647909Y-65681325I-507905J0D01*
G01*
X199647909Y-65681325D02*
G75*
G02*
X200663719Y-65681325I507905J0D01*
G01*
X102619069Y-61108049D02*
G75*
G02*
X101603259Y-61108049I-507905J0D01*
G01*
X101603259Y-61108049D02*
G75*
G02*
X102619069Y-61108049I507905J0D01*
G01*
X131054465Y-62634521D02*
G75*
G02*
X130038655Y-62634521I-507905J0D01*
G01*
X130038655Y-62634521D02*
G75*
G02*
X131054465Y-62634521I507905J0D01*
G01*
X169159799Y-62634940D02*
G75*
G02*
X168143989Y-62634940I-507905J0D01*
G01*
X168143989Y-62634940D02*
G75*
G02*
X169159799Y-62634940I507905J0D01*
G01*
X194557588Y-62633228D02*
G75*
G02*
X193541778Y-62633228I-507905J0D01*
G01*
X193541778Y-62633228D02*
G75*
G02*
X194557588Y-62633228I507905J0D01*
G01*
X197611507Y-64152255D02*
G75*
G02*
X196595697Y-64152255I-507905J0D01*
G01*
X196595697Y-64152255D02*
G75*
G02*
X197611507Y-64152255I507905J0D01*
G01*
X219710720Y-62634573D02*
G75*
G02*
X218694910Y-62634573I-507905J0D01*
G01*
X218694910Y-62634573D02*
G75*
G02*
X219710720Y-62634573I507905J0D01*
G01*
X181854079Y-62637908D02*
G75*
G02*
X180838269Y-62637908I-507905J0D01*
G01*
X180838269Y-62637908D02*
G75*
G02*
X181854079Y-62637908I507905J0D01*
G01*
X153418727Y-61109007D02*
G75*
G02*
X152402917Y-61109007I-507905J0D01*
G01*
X152402917Y-61109007D02*
G75*
G02*
X153418727Y-61109007I507905J0D01*
G01*
X149858093Y-65680397D02*
G75*
G02*
X148842283Y-65680397I-507905J0D01*
G01*
X148842283Y-65680397D02*
G75*
G02*
X149858093Y-65680397I507905J0D01*
G01*
X175265930Y-65683037D02*
G75*
G02*
X174250120Y-65683037I-507905J0D01*
G01*
X174250120Y-65683037D02*
G75*
G02*
X175265930Y-65683037I507905J0D01*
G01*
X216656801Y-61115546D02*
G75*
G02*
X215640991Y-61115546I-507905J0D01*
G01*
X215640991Y-61115546D02*
G75*
G02*
X216656801Y-61115546I507905J0D01*
G01*
X99060026Y-65681339D02*
G75*
G02*
X98044216Y-65681339I-507905J0D01*
G01*
X98044216Y-65681339D02*
G75*
G02*
X99060026Y-65681339I507905J0D01*
G01*
X96018772Y-64154479D02*
G75*
G02*
X95002962Y-64154479I-507905J0D01*
G01*
X95002962Y-64154479D02*
G75*
G02*
X96018772Y-64154479I507905J0D01*
G01*
X172213718Y-64153967D02*
G75*
G02*
X171197908Y-64153967I-507905J0D01*
G01*
X171197908Y-64153967D02*
G75*
G02*
X172213718Y-64153967I507905J0D01*
G01*
X143751962Y-62632300D02*
G75*
G02*
X142736152Y-62632300I-507905J0D01*
G01*
X142736152Y-62632300D02*
G75*
G02*
X143751962Y-62632300I507905J0D01*
G01*
X73666816Y-65686507D02*
G75*
G02*
X72651006Y-65686507I-507905J0D01*
G01*
X72651006Y-65686507D02*
G75*
G02*
X73666816Y-65686507I507905J0D01*
G01*
X124465839Y-65682253D02*
G75*
G02*
X123450029Y-65682253I-507905J0D01*
G01*
X123450029Y-65682253D02*
G75*
G02*
X124465839Y-65682253I507905J0D01*
G01*
X86361306Y-65677478D02*
G75*
G02*
X85345496Y-65677478I-507905J0D01*
G01*
X85345496Y-65677478D02*
G75*
G02*
X86361306Y-65677478I507905J0D01*
G01*
X80268114Y-62639306D02*
G75*
G02*
X79252304Y-62639306I-507905J0D01*
G01*
X79252304Y-62639306D02*
G75*
G02*
X80268114Y-62639306I507905J0D01*
G01*
X213105482Y-65681168D02*
G75*
G02*
X212089672Y-65681168I-507905J0D01*
G01*
X212089672Y-65681168D02*
G75*
G02*
X213105482Y-65681168I507905J0D01*
G01*
X184907998Y-64156935D02*
G75*
G02*
X183892188Y-64156935I-507905J0D01*
G01*
X183892188Y-64156935D02*
G75*
G02*
X184907998Y-64156935I507905J0D01*
G01*
X156458790Y-62631488D02*
G75*
G02*
X155442980Y-62631488I-507905J0D01*
G01*
X155442980Y-62631488D02*
G75*
G02*
X156458790Y-62631488I507905J0D01*
G01*
X67560685Y-62638410D02*
G75*
G02*
X66544875Y-62638410I-507905J0D01*
G01*
X66544875Y-62638410D02*
G75*
G02*
X67560685Y-62638410I507905J0D01*
G01*
X128014402Y-61112040D02*
G75*
G02*
X126998592Y-61112040I-507905J0D01*
G01*
X126998592Y-61112040D02*
G75*
G02*
X128014402Y-61112040I507905J0D01*
G01*
X118359708Y-62634156D02*
G75*
G02*
X117343898Y-62634156I-507905J0D01*
G01*
X117343898Y-62634156D02*
G75*
G02*
X118359708Y-62634156I507905J0D01*
G01*
X83311902Y-64155584D02*
G75*
G02*
X82296092Y-64155584I-507905J0D01*
G01*
X82296092Y-64155584D02*
G75*
G02*
X83311902Y-64155584I507905J0D01*
G01*
X210053270Y-64152098D02*
G75*
G02*
X209037460Y-64152098I-507905J0D01*
G01*
X209037460Y-64152098D02*
G75*
G02*
X210053270Y-64152098I507905J0D01*
G01*
X77216137Y-61112030D02*
G75*
G02*
X76200327Y-61112030I-507905J0D01*
G01*
X76200327Y-61112030D02*
G75*
G02*
X77216137Y-61112030I507905J0D01*
G01*
X166119736Y-61112459D02*
G75*
G02*
X165103926Y-61112459I-507905J0D01*
G01*
X165103926Y-61112459D02*
G75*
G02*
X166119736Y-61112459I507905J0D01*
G01*
X187960210Y-65686005D02*
G75*
G02*
X186944400Y-65686005I-507905J0D01*
G01*
X186944400Y-65686005D02*
G75*
G02*
X187960210Y-65686005I507905J0D01*
G01*
D11*
X58671725Y-69739610D02*
X59241108Y-69741787D01*
X59810491Y-69743963D01*
X59810491Y-70150363D01*
X58671725Y-70154715D01*
X58671725Y-70814996D01*
X59391392Y-70814996D01*
X59391392Y-71246796D01*
X58671725Y-71246796D01*
X58671725Y-71924010D01*
X59241108Y-71926187D01*
X59810491Y-71928363D01*
X59812754Y-72142146D01*
X59815016Y-72355929D01*
X58671725Y-72355929D01*
X58671725Y-72973996D01*
X58231458Y-72973996D01*
X58231458Y-72355929D01*
X57096925Y-72355929D01*
X57096925Y-71924130D01*
X58231458Y-71924130D01*
X58231458Y-71246796D01*
X57520258Y-71246796D01*
X57520258Y-70814996D01*
X58231458Y-70814996D01*
X58231458Y-70154596D01*
X57096925Y-70154596D01*
X57096925Y-69739730D01*
X58231239Y-69739730D01*
X58235691Y-69151296D01*
X58453708Y-69149037D01*
X58671725Y-69146777D01*
X58671725Y-69739610D01*
G36*
X58671725Y-69739610D02*
G01*
X59241108Y-69741787D01*
X59810491Y-69743963D01*
X59810491Y-70150363D01*
X58671725Y-70154715D01*
X58671725Y-70814996D01*
X59391392Y-70814996D01*
X59391392Y-71246796D01*
X58671725Y-71246796D01*
X58671725Y-71924010D01*
X59241108Y-71926187D01*
X59810491Y-71928363D01*
X59812754Y-72142146D01*
X59815016Y-72355929D01*
X58671725Y-72355929D01*
X58671725Y-72973996D01*
X58231458Y-72973996D01*
X58231458Y-72355929D01*
X57096925Y-72355929D01*
X57096925Y-71924130D01*
X58231458Y-71924130D01*
X58231458Y-71246796D01*
X57520258Y-71246796D01*
X57520258Y-70814996D01*
X58231458Y-70814996D01*
X58231458Y-70154596D01*
X57096925Y-70154596D01*
X57096925Y-69739730D01*
X58231239Y-69739730D01*
X58235691Y-69151296D01*
X58453708Y-69149037D01*
X58671725Y-69146777D01*
X58671725Y-69739610D01*
G37*
X354287356Y-69739610D02*
X354856739Y-69741787D01*
X355426122Y-69743963D01*
X355426122Y-70150363D01*
X354287356Y-70154715D01*
X354287356Y-70814996D01*
X355007023Y-70814996D01*
X355007023Y-71246796D01*
X354287356Y-71246796D01*
X354287356Y-71924010D01*
X354856739Y-71926187D01*
X355426122Y-71928363D01*
X355428385Y-72142146D01*
X355430647Y-72355929D01*
X354287356Y-72355929D01*
X354287356Y-72973996D01*
X353847089Y-72973996D01*
X353847089Y-72355929D01*
X352712556Y-72355929D01*
X352712556Y-71924130D01*
X353847089Y-71924130D01*
X353847089Y-71246796D01*
X353135889Y-71246796D01*
X353135889Y-70814996D01*
X353847089Y-70814996D01*
X353847089Y-70154596D01*
X352712556Y-70154596D01*
X352712556Y-69739730D01*
X353846870Y-69739730D01*
X353851322Y-69151296D01*
X354069339Y-69149037D01*
X354287356Y-69146777D01*
X354287356Y-69739610D01*
G36*
X354287356Y-69739610D02*
G01*
X354856739Y-69741787D01*
X355426122Y-69743963D01*
X355426122Y-70150363D01*
X354287356Y-70154715D01*
X354287356Y-70814996D01*
X355007023Y-70814996D01*
X355007023Y-71246796D01*
X354287356Y-71246796D01*
X354287356Y-71924010D01*
X354856739Y-71926187D01*
X355426122Y-71928363D01*
X355428385Y-72142146D01*
X355430647Y-72355929D01*
X354287356Y-72355929D01*
X354287356Y-72973996D01*
X353847089Y-72973996D01*
X353847089Y-72355929D01*
X352712556Y-72355929D01*
X352712556Y-71924130D01*
X353847089Y-71924130D01*
X353847089Y-71246796D01*
X353135889Y-71246796D01*
X353135889Y-70814996D01*
X353847089Y-70814996D01*
X353847089Y-70154596D01*
X352712556Y-70154596D01*
X352712556Y-69739730D01*
X353846870Y-69739730D01*
X353851322Y-69151296D01*
X354069339Y-69149037D01*
X354287356Y-69146777D01*
X354287356Y-69739610D01*
G37*
D12*
X144037456Y-167154210D02*
X166337456Y-167154210D01*
X144057456Y-160474210D02*
X166337456Y-160474210D01*
X144027456Y-167154210D02*
G75*
G02*
X144027456Y-160474210I0J3340000D01*
G01*
X166327456Y-160474210D02*
G75*
G02*
X166327456Y-167154210I0J-3340000D01*
G01*
D11*
X159893227Y-162660967D02*
X160015656Y-162671099D01*
X160015656Y-164629968D01*
X159770798Y-164650234D01*
X159770798Y-162650834D01*
X159893227Y-162660967D01*
G36*
X159893227Y-162660967D02*
G01*
X160015656Y-162671099D01*
X160015656Y-164629968D01*
X159770798Y-164650234D01*
X159770798Y-162650834D01*
X159893227Y-162660967D01*
G37*
X148131852Y-164629968D02*
X148025522Y-164640216D01*
X147939522Y-164635155D01*
X147902579Y-164607170D01*
X147898618Y-164564485D01*
X147895587Y-164465130D01*
X147893557Y-164317724D01*
X147892596Y-164130887D01*
X147892773Y-163913238D01*
X147894159Y-163673398D01*
X147894642Y-163617489D01*
X147903317Y-162671099D01*
X148131852Y-162671099D01*
X148131852Y-164629968D01*
G36*
X148131852Y-164629968D02*
G01*
X148025522Y-164640216D01*
X147939522Y-164635155D01*
X147902579Y-164607170D01*
X147898618Y-164564485D01*
X147895587Y-164465130D01*
X147893557Y-164317724D01*
X147892596Y-164130887D01*
X147892773Y-163913238D01*
X147894159Y-163673398D01*
X147894642Y-163617489D01*
X147903317Y-162671099D01*
X148131852Y-162671099D01*
X148131852Y-164629968D01*
G37*
X154155374Y-164646292D02*
X154040082Y-164646292D01*
X153959195Y-164635741D01*
X153911587Y-164609863D01*
X153908977Y-164605085D01*
X153905221Y-164562951D01*
X153902376Y-164464122D01*
X153900505Y-164317194D01*
X153899669Y-164130761D01*
X153899931Y-163913418D01*
X153901352Y-163673761D01*
X153901840Y-163617489D01*
X153910515Y-162671099D01*
X154032944Y-162660967D01*
X154155374Y-162650834D01*
X154155374Y-164646292D01*
G36*
X154155374Y-164646292D02*
G01*
X154040082Y-164646292D01*
X153959195Y-164635741D01*
X153911587Y-164609863D01*
X153908977Y-164605085D01*
X153905221Y-164562951D01*
X153902376Y-164464122D01*
X153900505Y-164317194D01*
X153899669Y-164130761D01*
X153899931Y-163913418D01*
X153901352Y-163673761D01*
X153901840Y-163617489D01*
X153910515Y-162671099D01*
X154032944Y-162660967D01*
X154155374Y-162650834D01*
X154155374Y-164646292D01*
G37*
X157869063Y-162660967D02*
X157991492Y-162671099D01*
X158008878Y-164415629D01*
X158742392Y-164434081D01*
X158742392Y-164629968D01*
X158267114Y-164638967D01*
X158097108Y-164640682D01*
X157950808Y-164639315D01*
X157840400Y-164635199D01*
X157778070Y-164628668D01*
X157769235Y-164625364D01*
X157763550Y-164588205D01*
X157758388Y-164493994D01*
X157753938Y-164350974D01*
X157750385Y-164167387D01*
X157747916Y-163951478D01*
X157746718Y-163711488D01*
X157746633Y-163626798D01*
X157746633Y-162650834D01*
X157869063Y-162660967D01*
G36*
X157869063Y-162660967D02*
G01*
X157991492Y-162671099D01*
X158008878Y-164415629D01*
X158742392Y-164434081D01*
X158742392Y-164629968D01*
X158267114Y-164638967D01*
X158097108Y-164640682D01*
X157950808Y-164639315D01*
X157840400Y-164635199D01*
X157778070Y-164628668D01*
X157769235Y-164625364D01*
X157763550Y-164588205D01*
X157758388Y-164493994D01*
X157753938Y-164350974D01*
X157750385Y-164167387D01*
X157747916Y-163951478D01*
X157746718Y-163711488D01*
X157746633Y-163626798D01*
X157746633Y-162650834D01*
X157869063Y-162660967D01*
G37*
X162734069Y-163640268D02*
X162725425Y-164629968D01*
X162611158Y-164639583D01*
X162517601Y-164634566D01*
X162445477Y-164609338D01*
X162442159Y-164606936D01*
X162412497Y-164568132D01*
X162356197Y-164479783D01*
X162277860Y-164349678D01*
X162182092Y-164185608D01*
X162073495Y-163995362D01*
X161956674Y-163786732D01*
X161944856Y-163765409D01*
X161502285Y-162966146D01*
X161493546Y-163798057D01*
X161484808Y-164629968D01*
X161378221Y-164640235D01*
X161271634Y-164650501D01*
X161280277Y-163660800D01*
X161288921Y-162671099D01*
X161440339Y-162661298D01*
X161541129Y-162660739D01*
X161603506Y-162681279D01*
X161652550Y-162730572D01*
X161684699Y-162780561D01*
X161742835Y-162879148D01*
X161821926Y-163017470D01*
X161916944Y-163186666D01*
X162022859Y-163377872D01*
X162105117Y-163527999D01*
X162496890Y-164246351D01*
X162529538Y-162671099D01*
X162636125Y-162660833D01*
X162742713Y-162650567D01*
X162734069Y-163640268D01*
G36*
X162734069Y-163640268D02*
G01*
X162725425Y-164629968D01*
X162611158Y-164639583D01*
X162517601Y-164634566D01*
X162445477Y-164609338D01*
X162442159Y-164606936D01*
X162412497Y-164568132D01*
X162356197Y-164479783D01*
X162277860Y-164349678D01*
X162182092Y-164185608D01*
X162073495Y-163995362D01*
X161956674Y-163786732D01*
X161944856Y-163765409D01*
X161502285Y-162966146D01*
X161493546Y-163798057D01*
X161484808Y-164629968D01*
X161378221Y-164640235D01*
X161271634Y-164650501D01*
X161280277Y-163660800D01*
X161288921Y-162671099D01*
X161440339Y-162661298D01*
X161541129Y-162660739D01*
X161603506Y-162681279D01*
X161652550Y-162730572D01*
X161684699Y-162780561D01*
X161742835Y-162879148D01*
X161821926Y-163017470D01*
X161916944Y-163186666D01*
X162022859Y-163377872D01*
X162105117Y-163527999D01*
X162496890Y-164246351D01*
X162529538Y-162671099D01*
X162636125Y-162660833D01*
X162742713Y-162650567D01*
X162734069Y-163640268D01*
G37*
X164749072Y-162655368D02*
X164884771Y-162657925D01*
X164975079Y-162663614D01*
X165029945Y-162673607D01*
X165059319Y-162689070D01*
X165073151Y-162711174D01*
X165074608Y-162715472D01*
X165081021Y-162794519D01*
X165073315Y-162829739D01*
X165056010Y-162852466D01*
X165017542Y-162867835D01*
X164947162Y-162877197D01*
X164834122Y-162881902D01*
X164667674Y-162883300D01*
X164646928Y-162883310D01*
X164241098Y-162883310D01*
X164250485Y-163185303D01*
X164259872Y-163487295D01*
X164610836Y-163496561D01*
X164961800Y-163505828D01*
X164961800Y-163699506D01*
X164243548Y-163699506D01*
X164243548Y-164415807D01*
X165076068Y-164434081D01*
X165076068Y-164629968D01*
X164569186Y-164638922D01*
X164353731Y-164640947D01*
X164197101Y-164638059D01*
X164092985Y-164629900D01*
X164035072Y-164616111D01*
X164022335Y-164607907D01*
X164009968Y-164563582D01*
X163999695Y-164464305D01*
X163991522Y-164320384D01*
X163985452Y-164142124D01*
X163981490Y-163939834D01*
X163979639Y-163723818D01*
X163979905Y-163504386D01*
X163982291Y-163291842D01*
X163986802Y-163096495D01*
X163993442Y-162928651D01*
X164002214Y-162798616D01*
X164013125Y-162716699D01*
X164021543Y-162693953D01*
X164067798Y-162676565D01*
X164168692Y-162664409D01*
X164327682Y-162657231D01*
X164548224Y-162654779D01*
X164558032Y-162654776D01*
X164749072Y-162655368D01*
G36*
X164749072Y-162655368D02*
G01*
X164884771Y-162657925D01*
X164975079Y-162663614D01*
X165029945Y-162673607D01*
X165059319Y-162689070D01*
X165073151Y-162711174D01*
X165074608Y-162715472D01*
X165081021Y-162794519D01*
X165073315Y-162829739D01*
X165056010Y-162852466D01*
X165017542Y-162867835D01*
X164947162Y-162877197D01*
X164834122Y-162881902D01*
X164667674Y-162883300D01*
X164646928Y-162883310D01*
X164241098Y-162883310D01*
X164250485Y-163185303D01*
X164259872Y-163487295D01*
X164610836Y-163496561D01*
X164961800Y-163505828D01*
X164961800Y-163699506D01*
X164243548Y-163699506D01*
X164243548Y-164415807D01*
X165076068Y-164434081D01*
X165076068Y-164629968D01*
X164569186Y-164638922D01*
X164353731Y-164640947D01*
X164197101Y-164638059D01*
X164092985Y-164629900D01*
X164035072Y-164616111D01*
X164022335Y-164607907D01*
X164009968Y-164563582D01*
X163999695Y-164464305D01*
X163991522Y-164320384D01*
X163985452Y-164142124D01*
X163981490Y-163939834D01*
X163979639Y-163723818D01*
X163979905Y-163504386D01*
X163982291Y-163291842D01*
X163986802Y-163096495D01*
X163993442Y-162928651D01*
X164002214Y-162798616D01*
X164013125Y-162716699D01*
X164021543Y-162693953D01*
X164067798Y-162676565D01*
X164168692Y-162664409D01*
X164327682Y-162657231D01*
X164548224Y-162654779D01*
X164558032Y-162654776D01*
X164749072Y-162655368D01*
G37*
X145844792Y-162663531D02*
X146057901Y-162687634D01*
X146234495Y-162736457D01*
X146387427Y-162812457D01*
X146394580Y-162816950D01*
X146546193Y-162950535D01*
X146660045Y-163130150D01*
X146732980Y-163346453D01*
X146761840Y-163590101D01*
X146743731Y-163850102D01*
X146681412Y-164098167D01*
X146579948Y-164296471D01*
X146436000Y-164449859D01*
X146254602Y-164559414D01*
X146163426Y-164588215D01*
X146035359Y-164612240D01*
X145884217Y-164630801D01*
X145723819Y-164643212D01*
X145567982Y-164648785D01*
X145430523Y-164646834D01*
X145325259Y-164636671D01*
X145266009Y-164617610D01*
X145258782Y-164608931D01*
X145254647Y-164565780D01*
X145251459Y-164465980D01*
X145250753Y-164417758D01*
X145503703Y-164417758D01*
X145757967Y-164417758D01*
X145915175Y-164412346D01*
X146032635Y-164393063D01*
X146135227Y-164355341D01*
X146157903Y-164344300D01*
X146295793Y-164246591D01*
X146392863Y-164109937D01*
X146452488Y-163927864D01*
X146476152Y-163734335D01*
X146474971Y-163502917D01*
X146439735Y-163316878D01*
X146367335Y-163164100D01*
X146310872Y-163090229D01*
X146204191Y-162989823D01*
X146084972Y-162926035D01*
X145936269Y-162892618D01*
X145749610Y-162883310D01*
X145503703Y-162883310D01*
X145503703Y-164417758D01*
X145250753Y-164417758D01*
X145249295Y-164318171D01*
X145248228Y-164130992D01*
X145248335Y-163913086D01*
X145249689Y-163673092D01*
X145250169Y-163617489D01*
X145256898Y-162883310D01*
X145258844Y-162671099D01*
X145582316Y-162661693D01*
X145844792Y-162663531D01*
G36*
X145844792Y-162663531D02*
G01*
X146057901Y-162687634D01*
X146234495Y-162736457D01*
X146387427Y-162812457D01*
X146394580Y-162816950D01*
X146546193Y-162950535D01*
X146660045Y-163130150D01*
X146732980Y-163346453D01*
X146761840Y-163590101D01*
X146743731Y-163850102D01*
X146681412Y-164098167D01*
X146579948Y-164296471D01*
X146436000Y-164449859D01*
X146254602Y-164559414D01*
X146163426Y-164588215D01*
X146035359Y-164612240D01*
X145884217Y-164630801D01*
X145723819Y-164643212D01*
X145567982Y-164648785D01*
X145430523Y-164646834D01*
X145325259Y-164636671D01*
X145266009Y-164617610D01*
X145258782Y-164608931D01*
X145254647Y-164565780D01*
X145251459Y-164465980D01*
X145250753Y-164417758D01*
X145503703Y-164417758D01*
X145757967Y-164417758D01*
X145915175Y-164412346D01*
X146032635Y-164393063D01*
X146135227Y-164355341D01*
X146157903Y-164344300D01*
X146295793Y-164246591D01*
X146392863Y-164109937D01*
X146452488Y-163927864D01*
X146476152Y-163734335D01*
X146474971Y-163502917D01*
X146439735Y-163316878D01*
X146367335Y-163164100D01*
X146310872Y-163090229D01*
X146204191Y-162989823D01*
X146084972Y-162926035D01*
X145936269Y-162892618D01*
X145749610Y-162883310D01*
X145503703Y-162883310D01*
X145503703Y-164417758D01*
X145250753Y-164417758D01*
X145249295Y-164318171D01*
X145248228Y-164130992D01*
X145248335Y-163913086D01*
X145249689Y-163673092D01*
X145250169Y-163617489D01*
X145256898Y-162883310D01*
X145258844Y-162671099D01*
X145582316Y-162661693D01*
X145844792Y-162663531D01*
G37*
X152408386Y-162635959D02*
X152621244Y-162690119D01*
X152679962Y-162716878D01*
X152784487Y-162784344D01*
X152836756Y-162860616D01*
X152849461Y-162949349D01*
X152834489Y-163012693D01*
X152786729Y-163026512D01*
X152701921Y-162991031D01*
X152651765Y-162959858D01*
X152513590Y-162891158D01*
X152352941Y-162860803D01*
X152332306Y-162859344D01*
X152143062Y-162872186D01*
X151989583Y-162938547D01*
X151866387Y-163061565D01*
X151806649Y-163160111D01*
X151768065Y-163242415D01*
X151743490Y-163320306D01*
X151729877Y-163412270D01*
X151724181Y-163536793D01*
X151723274Y-163666152D01*
X151725317Y-163830258D01*
X151733073Y-163946696D01*
X151749257Y-164033021D01*
X151776585Y-164106793D01*
X151798048Y-164149694D01*
X151908533Y-164293309D01*
X152054800Y-164390362D01*
X152224605Y-164438527D01*
X152405703Y-164435479D01*
X152585849Y-164378891D01*
X152687818Y-164318677D01*
X152759436Y-164274662D01*
X152811380Y-164254634D01*
X152813691Y-164254519D01*
X152844489Y-164280286D01*
X152849916Y-164343086D01*
X152833021Y-164421166D01*
X152796856Y-164492776D01*
X152777122Y-164515256D01*
X152656447Y-164591254D01*
X152493250Y-164643959D01*
X152307205Y-164669959D01*
X152117982Y-164665847D01*
X152012312Y-164647796D01*
X151824801Y-164571180D01*
X151668871Y-164441890D01*
X151547844Y-164266117D01*
X151465039Y-164050050D01*
X151423778Y-163799878D01*
X151424759Y-163552590D01*
X151466364Y-163300088D01*
X151547477Y-163078068D01*
X151663241Y-162897078D01*
X151776084Y-162789979D01*
X151967945Y-162687333D01*
X152184666Y-162635512D01*
X152408386Y-162635959D01*
G36*
X152408386Y-162635959D02*
G01*
X152621244Y-162690119D01*
X152679962Y-162716878D01*
X152784487Y-162784344D01*
X152836756Y-162860616D01*
X152849461Y-162949349D01*
X152834489Y-163012693D01*
X152786729Y-163026512D01*
X152701921Y-162991031D01*
X152651765Y-162959858D01*
X152513590Y-162891158D01*
X152352941Y-162860803D01*
X152332306Y-162859344D01*
X152143062Y-162872186D01*
X151989583Y-162938547D01*
X151866387Y-163061565D01*
X151806649Y-163160111D01*
X151768065Y-163242415D01*
X151743490Y-163320306D01*
X151729877Y-163412270D01*
X151724181Y-163536793D01*
X151723274Y-163666152D01*
X151725317Y-163830258D01*
X151733073Y-163946696D01*
X151749257Y-164033021D01*
X151776585Y-164106793D01*
X151798048Y-164149694D01*
X151908533Y-164293309D01*
X152054800Y-164390362D01*
X152224605Y-164438527D01*
X152405703Y-164435479D01*
X152585849Y-164378891D01*
X152687818Y-164318677D01*
X152759436Y-164274662D01*
X152811380Y-164254634D01*
X152813691Y-164254519D01*
X152844489Y-164280286D01*
X152849916Y-164343086D01*
X152833021Y-164421166D01*
X152796856Y-164492776D01*
X152777122Y-164515256D01*
X152656447Y-164591254D01*
X152493250Y-164643959D01*
X152307205Y-164669959D01*
X152117982Y-164665847D01*
X152012312Y-164647796D01*
X151824801Y-164571180D01*
X151668871Y-164441890D01*
X151547844Y-164266117D01*
X151465039Y-164050050D01*
X151423778Y-163799878D01*
X151424759Y-163552590D01*
X151466364Y-163300088D01*
X151547477Y-163078068D01*
X151663241Y-162897078D01*
X151776084Y-162789979D01*
X151967945Y-162687333D01*
X152184666Y-162635512D01*
X152408386Y-162635959D01*
G37*
X155863650Y-162660711D02*
X156033793Y-162669015D01*
X156154340Y-162680525D01*
X156240993Y-162698121D01*
X156309451Y-162724684D01*
X156356603Y-162751175D01*
X156483192Y-162851186D01*
X156561203Y-162971445D01*
X156597976Y-163126571D01*
X156603301Y-163242436D01*
X156579591Y-163453977D01*
X156508446Y-163622394D01*
X156388472Y-163748994D01*
X156218272Y-163835080D01*
X155996453Y-163881960D01*
X155912375Y-163889009D01*
X155657173Y-163903782D01*
X155657173Y-164646292D01*
X155548347Y-164646292D01*
X155467677Y-164640319D01*
X155419230Y-164625812D01*
X155417756Y-164624527D01*
X155412174Y-164587498D01*
X155407121Y-164493586D01*
X155402789Y-164351203D01*
X155399368Y-164168760D01*
X155397049Y-163954668D01*
X155396024Y-163717340D01*
X155395991Y-163665414D01*
X155396428Y-163387409D01*
X155397256Y-163269643D01*
X155657173Y-163269643D01*
X155658914Y-163422368D01*
X155663650Y-163550448D01*
X155670653Y-163640207D01*
X155678938Y-163677740D01*
X155730938Y-163694686D01*
X155824375Y-163698293D01*
X155936910Y-163689223D01*
X156046201Y-163668137D01*
X156051371Y-163666725D01*
X156190303Y-163602535D01*
X156281681Y-163497595D01*
X156329504Y-163346643D01*
X156335892Y-163292377D01*
X156341468Y-163185561D01*
X156329626Y-163116034D01*
X156290997Y-163056290D01*
X156235758Y-162998296D01*
X156171379Y-162937956D01*
X156115104Y-162903537D01*
X156045070Y-162887790D01*
X155939416Y-162883466D01*
X155888973Y-162883310D01*
X155657173Y-162883310D01*
X155657173Y-163269643D01*
X155397256Y-163269643D01*
X155397972Y-163167721D01*
X155400974Y-162999379D01*
X155405476Y-162883310D01*
X155405783Y-162875408D01*
X155412749Y-162788836D01*
X155422223Y-162732690D01*
X155434555Y-162699996D01*
X155445090Y-162687318D01*
X155493218Y-162668250D01*
X155585445Y-162658270D01*
X155729471Y-162656887D01*
X155863650Y-162660711D01*
G36*
X155863650Y-162660711D02*
G01*
X156033793Y-162669015D01*
X156154340Y-162680525D01*
X156240993Y-162698121D01*
X156309451Y-162724684D01*
X156356603Y-162751175D01*
X156483192Y-162851186D01*
X156561203Y-162971445D01*
X156597976Y-163126571D01*
X156603301Y-163242436D01*
X156579591Y-163453977D01*
X156508446Y-163622394D01*
X156388472Y-163748994D01*
X156218272Y-163835080D01*
X155996453Y-163881960D01*
X155912375Y-163889009D01*
X155657173Y-163903782D01*
X155657173Y-164646292D01*
X155548347Y-164646292D01*
X155467677Y-164640319D01*
X155419230Y-164625812D01*
X155417756Y-164624527D01*
X155412174Y-164587498D01*
X155407121Y-164493586D01*
X155402789Y-164351203D01*
X155399368Y-164168760D01*
X155397049Y-163954668D01*
X155396024Y-163717340D01*
X155395991Y-163665414D01*
X155396428Y-163387409D01*
X155397256Y-163269643D01*
X155657173Y-163269643D01*
X155658914Y-163422368D01*
X155663650Y-163550448D01*
X155670653Y-163640207D01*
X155678938Y-163677740D01*
X155730938Y-163694686D01*
X155824375Y-163698293D01*
X155936910Y-163689223D01*
X156046201Y-163668137D01*
X156051371Y-163666725D01*
X156190303Y-163602535D01*
X156281681Y-163497595D01*
X156329504Y-163346643D01*
X156335892Y-163292377D01*
X156341468Y-163185561D01*
X156329626Y-163116034D01*
X156290997Y-163056290D01*
X156235758Y-162998296D01*
X156171379Y-162937956D01*
X156115104Y-162903537D01*
X156045070Y-162887790D01*
X155939416Y-162883466D01*
X155888973Y-162883310D01*
X155657173Y-162883310D01*
X155657173Y-163269643D01*
X155397256Y-163269643D01*
X155397972Y-163167721D01*
X155400974Y-162999379D01*
X155405476Y-162883310D01*
X155405783Y-162875408D01*
X155412749Y-162788836D01*
X155422223Y-162732690D01*
X155434555Y-162699996D01*
X155445090Y-162687318D01*
X155493218Y-162668250D01*
X155585445Y-162658270D01*
X155729471Y-162656887D01*
X155863650Y-162660711D01*
G37*
X150058620Y-162650150D02*
X150181691Y-162684296D01*
X150274180Y-162728554D01*
X150316406Y-162773391D01*
X150334272Y-162857763D01*
X150327489Y-162931595D01*
X150307760Y-162961945D01*
X150264101Y-162958916D01*
X150187416Y-162930900D01*
X150153942Y-162914901D01*
X149996013Y-162858251D01*
X149846929Y-162847564D01*
X149717597Y-162878974D01*
X149618923Y-162948617D01*
X149561814Y-163052629D01*
X149552032Y-163128169D01*
X149575421Y-163240997D01*
X149649293Y-163340158D01*
X149779204Y-163431459D01*
X149898620Y-163490354D01*
X150125834Y-163606298D01*
X150289152Y-163724770D01*
X150372520Y-163819849D01*
X150414719Y-163927832D01*
X150432425Y-164068767D01*
X150424946Y-164214800D01*
X150391589Y-164338078D01*
X150385724Y-164350194D01*
X150276350Y-164493769D01*
X150122757Y-164598390D01*
X149935744Y-164660265D01*
X149726111Y-164675603D01*
X149535708Y-164648620D01*
X149419119Y-164610095D01*
X149316971Y-164558593D01*
X149253173Y-164506351D01*
X149250539Y-164502652D01*
X149229230Y-164437173D01*
X149229852Y-164361057D01*
X149251456Y-164308359D01*
X149256050Y-164304820D01*
X149300715Y-164307535D01*
X149379113Y-164335935D01*
X149422808Y-164356995D01*
X149596979Y-164424087D01*
X149764628Y-164446056D01*
X149915771Y-164426186D01*
X150040425Y-164367761D01*
X150128607Y-164274064D01*
X150170333Y-164148378D01*
X150172340Y-164110470D01*
X150150853Y-164021260D01*
X150082869Y-163932090D01*
X149963105Y-163838044D01*
X149786278Y-163734206D01*
X149744317Y-163712201D01*
X149560379Y-163608427D01*
X149431276Y-163511457D01*
X149348801Y-163411095D01*
X149304745Y-163297144D01*
X149290899Y-163159409D01*
X149290849Y-163148930D01*
X149316523Y-162961799D01*
X149393178Y-162815336D01*
X149520261Y-162710107D01*
X149697220Y-162646681D01*
X149793478Y-162631877D01*
X149923154Y-162631036D01*
X150058620Y-162650150D01*
G36*
X150058620Y-162650150D02*
G01*
X150181691Y-162684296D01*
X150274180Y-162728554D01*
X150316406Y-162773391D01*
X150334272Y-162857763D01*
X150327489Y-162931595D01*
X150307760Y-162961945D01*
X150264101Y-162958916D01*
X150187416Y-162930900D01*
X150153942Y-162914901D01*
X149996013Y-162858251D01*
X149846929Y-162847564D01*
X149717597Y-162878974D01*
X149618923Y-162948617D01*
X149561814Y-163052629D01*
X149552032Y-163128169D01*
X149575421Y-163240997D01*
X149649293Y-163340158D01*
X149779204Y-163431459D01*
X149898620Y-163490354D01*
X150125834Y-163606298D01*
X150289152Y-163724770D01*
X150372520Y-163819849D01*
X150414719Y-163927832D01*
X150432425Y-164068767D01*
X150424946Y-164214800D01*
X150391589Y-164338078D01*
X150385724Y-164350194D01*
X150276350Y-164493769D01*
X150122757Y-164598390D01*
X149935744Y-164660265D01*
X149726111Y-164675603D01*
X149535708Y-164648620D01*
X149419119Y-164610095D01*
X149316971Y-164558593D01*
X149253173Y-164506351D01*
X149250539Y-164502652D01*
X149229230Y-164437173D01*
X149229852Y-164361057D01*
X149251456Y-164308359D01*
X149256050Y-164304820D01*
X149300715Y-164307535D01*
X149379113Y-164335935D01*
X149422808Y-164356995D01*
X149596979Y-164424087D01*
X149764628Y-164446056D01*
X149915771Y-164426186D01*
X150040425Y-164367761D01*
X150128607Y-164274064D01*
X150170333Y-164148378D01*
X150172340Y-164110470D01*
X150150853Y-164021260D01*
X150082869Y-163932090D01*
X149963105Y-163838044D01*
X149786278Y-163734206D01*
X149744317Y-163712201D01*
X149560379Y-163608427D01*
X149431276Y-163511457D01*
X149348801Y-163411095D01*
X149304745Y-163297144D01*
X149290899Y-163159409D01*
X149290849Y-163148930D01*
X149316523Y-162961799D01*
X149393178Y-162815336D01*
X149520261Y-162710107D01*
X149697220Y-162646681D01*
X149793478Y-162631877D01*
X149923154Y-162631036D01*
X150058620Y-162650150D01*
G37*
D13*
X58261250Y-94773750D03*
D14*
X63341250Y-94773750D03*
D13*
X68421250Y-94773750D03*
D15*
X65881250Y-89693750D03*
X59531250Y-92233750D03*
D13*
X77311250Y-94773750D03*
D14*
X82391250Y-94773750D03*
D13*
X87471250Y-94773750D03*
D15*
X84931250Y-89693750D03*
X78581250Y-92233750D03*
D13*
X96361250Y-94773750D03*
D14*
X101441250Y-94773750D03*
D13*
X106521250Y-94773750D03*
D15*
X103981250Y-89693750D03*
X97631250Y-92233750D03*
D13*
X115411250Y-94773750D03*
D14*
X120491250Y-94773750D03*
D13*
X125571250Y-94773750D03*
D15*
X123031250Y-89693750D03*
X116681250Y-92233750D03*
D13*
X134461250Y-94773750D03*
D14*
X139541250Y-94773750D03*
D13*
X144621250Y-94773750D03*
D15*
X142081250Y-89693750D03*
X135731250Y-92233750D03*
D13*
X153511250Y-94773750D03*
D14*
X158591250Y-94773750D03*
D13*
X163671250Y-94773750D03*
D15*
X161131250Y-89693750D03*
X154781250Y-92233750D03*
D13*
X172561250Y-94773750D03*
D14*
X177641250Y-94773750D03*
D13*
X182721250Y-94773750D03*
D15*
X180181250Y-89693750D03*
X173831250Y-92233750D03*
D13*
X191611250Y-94773750D03*
D14*
X196691250Y-94773750D03*
D13*
X201771250Y-94773750D03*
D15*
X199231250Y-89693750D03*
X192881250Y-92233750D03*
D13*
X210661250Y-94773750D03*
D14*
X215741250Y-94773750D03*
D13*
X220821250Y-94773750D03*
D15*
X218281250Y-89693750D03*
X211931250Y-92233750D03*
D13*
X229711250Y-94773750D03*
D14*
X234791250Y-94773750D03*
D13*
X239871250Y-94773750D03*
D15*
X237331250Y-89693750D03*
X230981250Y-92233750D03*
D13*
X248761250Y-94773750D03*
D14*
X253841250Y-94773750D03*
D13*
X258921250Y-94773750D03*
D15*
X256381250Y-89693750D03*
X250031250Y-92233750D03*
D13*
X267811250Y-94773750D03*
D14*
X272891250Y-94773750D03*
D13*
X277971250Y-94773750D03*
D15*
X275431250Y-89693750D03*
X269081250Y-92233750D03*
D13*
X286861250Y-94773750D03*
D14*
X291941250Y-94773750D03*
D13*
X297021250Y-94773750D03*
D15*
X294481250Y-89693750D03*
X288131250Y-92233750D03*
D13*
X344011250Y-94773750D03*
D14*
X349091250Y-94773750D03*
D13*
X354171250Y-94773750D03*
D15*
X351631250Y-89693750D03*
X345281250Y-92233750D03*
D13*
X86836250Y-113823750D03*
D14*
X91916250Y-113823750D03*
D13*
X96996250Y-113823750D03*
D15*
X94456250Y-108743750D03*
X88106250Y-111283750D03*
D13*
X105886250Y-113823750D03*
D14*
X110966250Y-113823750D03*
D13*
X116046250Y-113823750D03*
D15*
X113506250Y-108743750D03*
X107156250Y-111283750D03*
D13*
X124936250Y-113823750D03*
D14*
X130016250Y-113823750D03*
D13*
X135096250Y-113823750D03*
D15*
X132556250Y-108743750D03*
X126206250Y-111283750D03*
D13*
X143986250Y-113823750D03*
D14*
X149066250Y-113823750D03*
D13*
X154146250Y-113823750D03*
D15*
X151606250Y-108743750D03*
X145256250Y-111283750D03*
D13*
X163036250Y-113823750D03*
D14*
X168116250Y-113823750D03*
D13*
X173196250Y-113823750D03*
D15*
X170656250Y-108743750D03*
X164306250Y-111283750D03*
D13*
X182086250Y-113823750D03*
D14*
X187166250Y-113823750D03*
D13*
X192246250Y-113823750D03*
D15*
X189706250Y-108743750D03*
X183356250Y-111283750D03*
D13*
X201136250Y-113823750D03*
D14*
X206216250Y-113823750D03*
D13*
X211296250Y-113823750D03*
D15*
X208756250Y-108743750D03*
X202406250Y-111283750D03*
D13*
X220186250Y-113823750D03*
D14*
X225266250Y-113823750D03*
D13*
X230346250Y-113823750D03*
D15*
X227806250Y-108743750D03*
X221456250Y-111283750D03*
D13*
X239236250Y-113823750D03*
D14*
X244316250Y-113823750D03*
D13*
X249396250Y-113823750D03*
D15*
X246856250Y-108743750D03*
X240506250Y-111283750D03*
D13*
X258286250Y-113823750D03*
D14*
X263366250Y-113823750D03*
D13*
X268446250Y-113823750D03*
D15*
X265906250Y-108743750D03*
X259556250Y-111283750D03*
D13*
X277336250Y-113823750D03*
D14*
X282416250Y-113823750D03*
D13*
X287496250Y-113823750D03*
D15*
X284956250Y-108743750D03*
X278606250Y-111283750D03*
D13*
X296386250Y-113823750D03*
D14*
X301466250Y-113823750D03*
D13*
X306546250Y-113823750D03*
D15*
X304006250Y-108743750D03*
X297656250Y-111283750D03*
D13*
X344011250Y-113823750D03*
D14*
X349091250Y-113823750D03*
D13*
X354171250Y-113823750D03*
D15*
X351631250Y-108743750D03*
X345281250Y-111283750D03*
D13*
X91598750Y-132873750D03*
D14*
X96678750Y-132873750D03*
D13*
X101758750Y-132873750D03*
D15*
X99218750Y-127793750D03*
X92868750Y-130333750D03*
D13*
X110648750Y-132873750D03*
D14*
X115728750Y-132873750D03*
D13*
X120808750Y-132873750D03*
D15*
X118268750Y-127793750D03*
X111918750Y-130333750D03*
D13*
X129698750Y-132873750D03*
D14*
X134778750Y-132873750D03*
D13*
X139858750Y-132873750D03*
D15*
X137318750Y-127793750D03*
X130968750Y-130333750D03*
D13*
X148748250Y-132873750D03*
D14*
X153828250Y-132873750D03*
D13*
X158908250Y-132873750D03*
D15*
X156368250Y-127793750D03*
X150018250Y-130333750D03*
D13*
X167798250Y-132873750D03*
D14*
X172878250Y-132873750D03*
D13*
X177958250Y-132873750D03*
D15*
X175418250Y-127793750D03*
X169068250Y-130333750D03*
D13*
X186848250Y-132873750D03*
D14*
X191928250Y-132873750D03*
D13*
X197008250Y-132873750D03*
D15*
X194468250Y-127793750D03*
X188118250Y-130333750D03*
D13*
X205898250Y-132873750D03*
D14*
X210978250Y-132873750D03*
D13*
X216058250Y-132873750D03*
D15*
X213518250Y-127793750D03*
X207168250Y-130333750D03*
D13*
X224948250Y-132873750D03*
D14*
X230028250Y-132873750D03*
D13*
X235108250Y-132873750D03*
D15*
X232568250Y-127793750D03*
X226218250Y-130333750D03*
D13*
X243998250Y-132873750D03*
D14*
X249078250Y-132873750D03*
D13*
X254158250Y-132873750D03*
D15*
X251618250Y-127793750D03*
X245268250Y-130333750D03*
D13*
X263048250Y-132873750D03*
D14*
X268128250Y-132873750D03*
D13*
X273208250Y-132873750D03*
D15*
X270668250Y-127793750D03*
X264318250Y-130333750D03*
D13*
X282098250Y-132873750D03*
D14*
X287178250Y-132873750D03*
D13*
X292258250Y-132873750D03*
D15*
X289718250Y-127793750D03*
X283368250Y-130333750D03*
D13*
X344011250Y-132873750D03*
D14*
X349091250Y-132873750D03*
D13*
X354171250Y-132873750D03*
D15*
X351631250Y-127793750D03*
X345281250Y-130333750D03*
D13*
X101123750Y-151923750D03*
D14*
X106203750Y-151923750D03*
D13*
X111283750Y-151923750D03*
D15*
X108743750Y-146843750D03*
X102393750Y-149383750D03*
D13*
X120173750Y-151923750D03*
D14*
X125253750Y-151923750D03*
D13*
X130333750Y-151923750D03*
D15*
X127793750Y-146843750D03*
X121443750Y-149383750D03*
D13*
X139223750Y-151923750D03*
D14*
X144303750Y-151923750D03*
D13*
X149383750Y-151923750D03*
D15*
X146843750Y-146843750D03*
X140493750Y-149383750D03*
D13*
X158274250Y-151923750D03*
D14*
X163354250Y-151923750D03*
D13*
X168434250Y-151923750D03*
D15*
X165894250Y-146843750D03*
X159544250Y-149383750D03*
D13*
X177324250Y-151923750D03*
D14*
X182404250Y-151923750D03*
D13*
X187484250Y-151923750D03*
D15*
X184944250Y-146843750D03*
X178594250Y-149383750D03*
D13*
X196374250Y-151923750D03*
D14*
X201454250Y-151923750D03*
D13*
X206534250Y-151923750D03*
D15*
X203994250Y-146843750D03*
X197644250Y-149383750D03*
D13*
X215424250Y-151923750D03*
D14*
X220504250Y-151923750D03*
D13*
X225584250Y-151923750D03*
D15*
X223044250Y-146843750D03*
X216694250Y-149383750D03*
D13*
X234474250Y-151923750D03*
D14*
X239554250Y-151923750D03*
D13*
X244634250Y-151923750D03*
D15*
X242094250Y-146843750D03*
X235744250Y-149383750D03*
D13*
X253524250Y-151923750D03*
D14*
X258604250Y-151923750D03*
D13*
X263684250Y-151923750D03*
D15*
X261144250Y-146843750D03*
X254794250Y-149383750D03*
D13*
X272574250Y-151923750D03*
D14*
X277654250Y-151923750D03*
D13*
X282734250Y-151923750D03*
D15*
X280194250Y-146843750D03*
X273844250Y-149383750D03*
D13*
X324961250Y-151923750D03*
D14*
X330041250Y-151923750D03*
D13*
X335121250Y-151923750D03*
D15*
X332581250Y-146843750D03*
X326231250Y-149383750D03*
D13*
X344011250Y-151923750D03*
D14*
X349091250Y-151923750D03*
D13*
X354171250Y-151923750D03*
D15*
X351631250Y-146843750D03*
X345281250Y-149383750D03*
D13*
X179705250Y-170973750D03*
D14*
X184785250Y-170973750D03*
D13*
X189865250Y-170973750D03*
D15*
X187325250Y-165893750D03*
X180975250Y-168433750D03*
D13*
X305911250Y-170973750D03*
D14*
X310991250Y-170973750D03*
D13*
X316071250Y-170973750D03*
D15*
X313531250Y-165893750D03*
X307181250Y-168433750D03*
D13*
X324961250Y-170973750D03*
D14*
X330041250Y-170973750D03*
D13*
X335121250Y-170973750D03*
D15*
X332581250Y-165893750D03*
X326231250Y-168433750D03*
D13*
X344011250Y-170973750D03*
D14*
X349091250Y-170973750D03*
D13*
X354171250Y-170973750D03*
D15*
X351631250Y-165893750D03*
X345281250Y-168433750D03*
D16*
X308616250Y-87773750D03*
D14*
X308616250Y-103013750D03*
D13*
X315436250Y-94773750D03*
D14*
X320516250Y-94773750D03*
D13*
X325596250Y-94773750D03*
D16*
X332416250Y-87773750D03*
D14*
X332416250Y-103013750D03*
D15*
X323056250Y-89693750D03*
X316706250Y-92233750D03*
D13*
X320198250Y-113823750D03*
D14*
X325278250Y-113823750D03*
D13*
X330358250Y-113823750D03*
D15*
X327818250Y-108743750D03*
X321468250Y-111283750D03*
D13*
X65405050Y-132863620D03*
D14*
X70485050Y-132863620D03*
D13*
X75565050Y-132863620D03*
D15*
X73025050Y-127783620D03*
X66675050Y-130323620D03*
D16*
X306235250Y-125873750D03*
D14*
X306235250Y-141113750D03*
D13*
X313055250Y-132873750D03*
D14*
X318135250Y-132873750D03*
D13*
X323215250Y-132873750D03*
D16*
X330035250Y-125873750D03*
D14*
X330035250Y-141113750D03*
D15*
X320675250Y-127793750D03*
X314325250Y-130333750D03*
D16*
X63347450Y-144923750D03*
D14*
X63347450Y-160163750D03*
D13*
X70167450Y-151923750D03*
D14*
X75247450Y-151923750D03*
D13*
X80327450Y-151923750D03*
D16*
X87147450Y-144923750D03*
D14*
X87147450Y-160163750D03*
D15*
X77787450Y-146843750D03*
X71437450Y-149383750D03*
D13*
X298767250Y-151923750D03*
D14*
X303847250Y-151923750D03*
D13*
X308927250Y-151923750D03*
D15*
X306387250Y-146843750D03*
X300037250Y-149383750D03*
D13*
X60642450Y-170963620D03*
D14*
X65722450Y-170963620D03*
D13*
X70802450Y-170963620D03*
D15*
X68262450Y-165883620D03*
X61912450Y-168423620D03*
D13*
X84455050Y-170973750D03*
D14*
X89535050Y-170973750D03*
D13*
X94615050Y-170973750D03*
D15*
X92075050Y-165893750D03*
X85725050Y-168433750D03*
D13*
X108267450Y-170963620D03*
D14*
X113347450Y-170963620D03*
D13*
X118427450Y-170963620D03*
D15*
X115887450Y-165883620D03*
X109537450Y-168423620D03*
D17*
X57766382Y-80444750D03*
X57766382Y-61694750D03*
X354660309Y-61694750D03*
X354660309Y-80444750D03*
X96565888Y-161146960D03*
X315860803Y-161146960D03*
X113754723Y-104302994D03*
X298671968Y-104302994D03*
X206213345Y-104302994D03*
D18*
X120517573Y-162726640D03*
D19*
X120517573Y-177966640D03*
D18*
X234817573Y-162726640D03*
D19*
X234817573Y-177966640D03*
D17*
X206213345Y-166958110D03*
D13*
X286901528Y-170963620D03*
D14*
X291981528Y-170963620D03*
D13*
X297061528Y-170963620D03*
D15*
X294521528Y-165883620D03*
X288171528Y-168423620D03*
D20*
X63600284Y-67475612D03*
D21*
X63600284Y-72555612D03*
D20*
X85786525Y-72436199D03*
D21*
X85786525Y-77516199D03*
D20*
X88955988Y-67475612D03*
D21*
X88955988Y-72555612D03*
D20*
X101633840Y-67475612D03*
D21*
X101633840Y-72555612D03*
D20*
X114311692Y-67475612D03*
D21*
X114311692Y-72555612D03*
D20*
X126989544Y-67475612D03*
D21*
X126989544Y-72555612D03*
D20*
X139667396Y-67475612D03*
D21*
X139667396Y-72555612D03*
D20*
X152345248Y-67475612D03*
D21*
X152345248Y-72555612D03*
D20*
X165023100Y-67475612D03*
D21*
X165023100Y-72555612D03*
D20*
X177700952Y-67475612D03*
D21*
X177700952Y-72555612D03*
D20*
X190378804Y-67475612D03*
D21*
X190378804Y-72555612D03*
D20*
X203056656Y-67475612D03*
D21*
X203056656Y-72555612D03*
D20*
X215734508Y-67475612D03*
D21*
X215734508Y-72555612D03*
D20*
X228342376Y-67475612D03*
D21*
X228342376Y-72555612D03*
D20*
X275541929Y-72436199D03*
D21*
X275541929Y-77516199D03*
D20*
X66769747Y-69129141D03*
D21*
X66769747Y-74209141D03*
D20*
X82617062Y-70782670D03*
D21*
X82617062Y-75862670D03*
D20*
X92125451Y-69129141D03*
D21*
X92125451Y-74209141D03*
D20*
X104803303Y-69129141D03*
D21*
X104803303Y-74209141D03*
D20*
X117481155Y-69129141D03*
D21*
X117481155Y-74209141D03*
D20*
X130159007Y-69129141D03*
D21*
X130159007Y-74209141D03*
D20*
X142836859Y-69129141D03*
D21*
X142836859Y-74209141D03*
D20*
X155514711Y-69129141D03*
D21*
X155514711Y-74209141D03*
D20*
X168192563Y-69129141D03*
D21*
X168192563Y-74209141D03*
D20*
X180870415Y-69129141D03*
D21*
X180870415Y-74209141D03*
D20*
X193548267Y-69129141D03*
D21*
X193548267Y-74209141D03*
D20*
X206226119Y-69129141D03*
D21*
X206226119Y-74209141D03*
D20*
X218886475Y-69129141D03*
D21*
X218886475Y-74209141D03*
D20*
X231493149Y-69129141D03*
D21*
X231493149Y-74209141D03*
D20*
X272453205Y-70782670D03*
D21*
X272453205Y-75862670D03*
D20*
X69939210Y-70782670D03*
D21*
X69939210Y-75862670D03*
D20*
X79447599Y-69129141D03*
D21*
X79447599Y-74209141D03*
D20*
X95294914Y-70782670D03*
D21*
X95294914Y-75862670D03*
D20*
X107972766Y-70782670D03*
D21*
X107972766Y-75862670D03*
D20*
X120650618Y-70782670D03*
D21*
X120650618Y-75862670D03*
D20*
X133328470Y-70782670D03*
D21*
X133328470Y-75862670D03*
D20*
X146006322Y-70782670D03*
D21*
X146006322Y-75862670D03*
D20*
X158684174Y-70782670D03*
D21*
X158684174Y-75862670D03*
D20*
X171362026Y-70782670D03*
D21*
X171362026Y-75862670D03*
D20*
X184039878Y-70782670D03*
D21*
X184039878Y-75862670D03*
D20*
X196717730Y-70782670D03*
D21*
X196717730Y-75862670D03*
D20*
X209395582Y-70782670D03*
D21*
X209395582Y-75862670D03*
D20*
X234643922Y-70782670D03*
D21*
X234643922Y-75862670D03*
D20*
X269364481Y-69129141D03*
D21*
X269364481Y-74209141D03*
D20*
X73108673Y-72436199D03*
D21*
X73108673Y-77516199D03*
D20*
X98464377Y-72436199D03*
D21*
X98464377Y-77516199D03*
D20*
X111142229Y-72436199D03*
D21*
X111142229Y-77516199D03*
D20*
X123820081Y-72436199D03*
D21*
X123820081Y-77516199D03*
D20*
X136497933Y-72436199D03*
D21*
X136497933Y-77516199D03*
D20*
X149175785Y-72436199D03*
D21*
X149175785Y-77516199D03*
D20*
X161853637Y-72436199D03*
D21*
X161853637Y-77516199D03*
D20*
X174531489Y-72436199D03*
D21*
X174531489Y-77516199D03*
D20*
X187209341Y-72436199D03*
D21*
X187209341Y-77516199D03*
D20*
X199887193Y-72436199D03*
D21*
X199887193Y-77516199D03*
D20*
X212565045Y-72436199D03*
D21*
X212565045Y-77516199D03*
D20*
X222038442Y-70782670D03*
D21*
X222038442Y-75862670D03*
D20*
X237794695Y-72436199D03*
D21*
X237794695Y-77516199D03*
D20*
X266089606Y-67475612D03*
D21*
X266089606Y-72555612D03*
D20*
X259788058Y-70782670D03*
D21*
X259788058Y-75862670D03*
D20*
X76278136Y-67475612D03*
D21*
X76278136Y-72555612D03*
D20*
X256637284Y-69129141D03*
D21*
X256637284Y-74209141D03*
D20*
X253486511Y-67475612D03*
D21*
X253486511Y-72555612D03*
D20*
X250335738Y-72436199D03*
D21*
X250335738Y-77516199D03*
D20*
X225190409Y-72436199D03*
D21*
X225190409Y-77516199D03*
D20*
X244096241Y-69129141D03*
D21*
X244096241Y-74209141D03*
D20*
X240945468Y-67475612D03*
D21*
X240945468Y-72555612D03*
D20*
X262938832Y-72436199D03*
D21*
X262938832Y-77516199D03*
D20*
X247184965Y-70782670D03*
D21*
X247184965Y-75862670D03*
D22*
X295106316Y-73152052D03*
D23*
X290026316Y-73152052D03*
D22*
X295106316Y-75645517D03*
D23*
X290026316Y-75645517D03*
D22*
X290026316Y-70580211D03*
D23*
X295106316Y-70580211D03*
D24*
X226485732Y-59836074D03*
X232985732Y-59836074D03*
X226485732Y-64336074D03*
X232985732Y-64336074D03*
D25*
X284127716Y-61970830D03*
D26*
X286667716Y-61970830D03*
D22*
X290026316Y-65567034D03*
D23*
X295106316Y-65567034D03*
D24*
X238485732Y-59836074D03*
X244985732Y-59836074D03*
X238485732Y-64336074D03*
X244985732Y-64336074D03*
D22*
X270047614Y-64450838D03*
X270047614Y-59350838D03*
D27*
X284477676Y-70404866D03*
D28*
X284477676Y-68904866D03*
D29*
X325125530Y-58926178D03*
X330125530Y-58926178D03*
X320471062Y-78716416D03*
X325471062Y-78716416D03*
D13*
X248790884Y-170963620D03*
D14*
X253870884Y-170963620D03*
D13*
X258950884Y-170963620D03*
D15*
X256410884Y-165883620D03*
X250060884Y-168423620D03*
D13*
X267846206Y-170973750D03*
D14*
X272926206Y-170973750D03*
D13*
X278006206Y-170973750D03*
D15*
X275466206Y-165893750D03*
X269116206Y-168433750D03*
D30*
X280523468Y-66391022D03*
X279673468Y-66391022D03*
X278823468Y-66391022D03*
X277973468Y-66391022D03*
X277123468Y-66391022D03*
X276273468Y-66391022D03*
X275423468Y-66391022D03*
X274573468Y-66391022D03*
X274568468Y-65066022D03*
X275418468Y-65066022D03*
X276268468Y-65066022D03*
X277118468Y-65066022D03*
X277968468Y-65066022D03*
X278818468Y-65066022D03*
X279668468Y-65066022D03*
X280523468Y-65066022D03*
D31*
X281873468Y-65411022D03*
D32*
X281873468Y-62031022D03*
D31*
X273223468Y-65411022D03*
D32*
X273223468Y-62031022D03*
D29*
X341906112Y-82006040D03*
X341906112Y-79506040D03*
X327680238Y-82006040D03*
X327680238Y-79506040D03*
D20*
X286174982Y-73162196D03*
D21*
X286174982Y-78242196D03*
D20*
X283305310Y-73162196D03*
D21*
X283305310Y-78242196D03*
D22*
X295106316Y-78138982D03*
D23*
X290026316Y-78138982D03*
D33*
X337251644Y-80256240D03*
X332371644Y-80256240D03*
D22*
X295106316Y-63073204D03*
D23*
X290026316Y-63073204D03*
D22*
X290026316Y-68060499D03*
D23*
X295106316Y-68060499D03*
D18*
X134811423Y-162726640D03*
D19*
X134811423Y-177966640D03*
D18*
X234811223Y-162726640D03*
D19*
X234811223Y-177966640D03*
D34*
X255293830Y-60350870D03*
D13*
X255293830Y-62890870D03*
X252753830Y-60350870D03*
X252753830Y-62890870D03*
X250213830Y-60350870D03*
X250213830Y-62890870D03*
X60642500Y-132863620D03*
D14*
X65722500Y-132863620D03*
D13*
X70802500Y-132863620D03*
D15*
X68262500Y-127783620D03*
X61912500Y-130323620D03*
D13*
X63023700Y-170963620D03*
D14*
X68103700Y-170963620D03*
D13*
X73183700Y-170963620D03*
D15*
X70643700Y-165883620D03*
X64293700Y-168423620D03*
D13*
X91623031Y-170969819D03*
D14*
X96703031Y-170969819D03*
D13*
X101783031Y-170969819D03*
D15*
X99243031Y-165889819D03*
X92893031Y-168429819D03*
D13*
X172587573Y-170981640D03*
D14*
X177667573Y-170981640D03*
D13*
X182747573Y-170981640D03*
D15*
X180207573Y-165901640D03*
X173857573Y-168441640D03*
D13*
X253563936Y-170973750D03*
D14*
X258643936Y-170973750D03*
D13*
X263723936Y-170973750D03*
D15*
X261183936Y-165893750D03*
X254833936Y-168433750D03*
D13*
X282120128Y-170973750D03*
D14*
X287200128Y-170973750D03*
D13*
X292280128Y-170973750D03*
D15*
X289740128Y-165893750D03*
X283390128Y-168433750D03*
D13*
X63023750Y-113823750D03*
D14*
X68103750Y-113823750D03*
D13*
X73183750Y-113823750D03*
D15*
X70643750Y-108743750D03*
X64293750Y-111283750D03*
D20*
X299753430Y-76389182D03*
D21*
X302293430Y-76389182D03*
X304833430Y-76389182D03*
X307373430Y-76389182D03*
X309913430Y-76389182D03*
X312453430Y-76389182D03*
X314993430Y-76389182D03*
X317533430Y-76389182D03*
X320073430Y-76389182D03*
X322613430Y-76389182D03*
X325153430Y-76389182D03*
X327693430Y-76389182D03*
X330233430Y-76389182D03*
X332773430Y-76389182D03*
X335313430Y-76389182D03*
X337853430Y-76389182D03*
X340393430Y-76389182D03*
X342933430Y-76389182D03*
X345473430Y-76389182D03*
X348013430Y-76389182D03*
X348013430Y-61149182D03*
X345473430Y-61149182D03*
X342933430Y-61149182D03*
X340393430Y-61149182D03*
X337853430Y-61149182D03*
X335313430Y-61149182D03*
X332773430Y-61149182D03*
X330233430Y-61149182D03*
X327693430Y-61149182D03*
X325153430Y-61149182D03*
X322613430Y-61149182D03*
X320073430Y-61149182D03*
X317533430Y-61149182D03*
X314993430Y-61149182D03*
X312453430Y-61149182D03*
X309913430Y-61149182D03*
X307373430Y-61149182D03*
X304833430Y-61149182D03*
X302293430Y-61149182D03*
X299753430Y-61149182D03*
D17*
X206213345Y-80444750D03*
X206213345Y-61694750D03*
D20*
X96678750Y-148234400D03*
D21*
X96678750Y-153314400D03*
D13*
X82073750Y-151923750D03*
D14*
X87153750Y-151923750D03*
D13*
X92233750Y-151923750D03*
D15*
X89693750Y-146843750D03*
X83343750Y-149383750D03*
D14*
X319420000Y-111448750D03*
X319420000Y-135248750D03*
D13*
X322580000Y-123348750D03*
D14*
X327660000Y-123348750D03*
D13*
X332740000Y-123348750D03*
D16*
X334660000Y-111448750D03*
X334660000Y-135248750D03*
D15*
X330200000Y-118268750D03*
X323850000Y-120808750D03*
D13*
X301148750Y-132873750D03*
D14*
X306228750Y-132873750D03*
D13*
X311308750Y-132873750D03*
D15*
X308768750Y-127793750D03*
X302418750Y-130333750D03*
D13*
X60642500Y-151923750D03*
D14*
X65722500Y-151923750D03*
D13*
X70802500Y-151923750D03*
D15*
X68262500Y-146843750D03*
X61912500Y-149383750D03*
M02*
