%TF.GenerationSoftware,KiCad,Pcbnew,8.0.2*%
%TF.CreationDate,2024-05-19T23:09:42-04:00*%
%TF.ProjectId,discipline-pcb,64697363-6970-46c6-996e-652d7063622e,1.0*%
%TF.SameCoordinates,Original*%
%TF.FileFunction,Plated,1,2,PTH,Mixed*%
%TF.FilePolarity,Positive*%
%FSLAX46Y46*%
G04 Gerber Fmt 4.6, Leading zero omitted, Abs format (unit mm)*
G04 Created by KiCad (PCBNEW 8.0.2) date 2024-05-19 23:09:42*
%MOMM*%
%LPD*%
G01*
G04 APERTURE LIST*
%TA.AperFunction,ViaDrill*%
%ADD10C,0.400000*%
%TD*%
%TA.AperFunction,ComponentDrill*%
%ADD11C,0.400000*%
%TD*%
G04 aperture for slot hole*
%TA.AperFunction,ComponentDrill*%
%ADD12C,0.600000*%
%TD*%
%TA.AperFunction,ComponentDrill*%
%ADD13C,0.600000*%
%TD*%
%TA.AperFunction,ComponentDrill*%
%ADD14C,0.700000*%
%TD*%
%TA.AperFunction,ComponentDrill*%
%ADD15C,0.800000*%
%TD*%
%TA.AperFunction,ComponentDrill*%
%ADD16C,0.900000*%
%TD*%
%TA.AperFunction,ComponentDrill*%
%ADD17C,1.016000*%
%TD*%
%TA.AperFunction,ComponentDrill*%
%ADD18C,1.100000*%
%TD*%
%TA.AperFunction,ComponentDrill*%
%ADD19C,1.500000*%
%TD*%
%TA.AperFunction,ComponentDrill*%
%ADD20C,2.200000*%
%TD*%
G04 APERTURE END LIST*
D10*
X57598608Y-86468030D03*
X70586600Y-128854200D03*
X70815200Y-88036400D03*
X75184000Y-75438000D03*
X78028800Y-128879600D03*
X104895702Y-124176220D03*
X127275644Y-177842586D03*
X128574800Y-80385920D03*
X141178280Y-80385920D03*
X154792680Y-80385920D03*
X166517320Y-80385920D03*
X178023520Y-80385920D03*
X193883280Y-80385920D03*
X201787760Y-80385920D03*
X209986880Y-80385920D03*
X212438410Y-178122554D03*
X218048840Y-80385920D03*
X226085400Y-68366640D03*
X231505760Y-80385920D03*
X235045826Y-65487928D03*
X236725634Y-69327582D03*
X238455200Y-69336920D03*
X238720406Y-67640182D03*
X244002560Y-80385920D03*
X249202787Y-67247085D03*
X249954122Y-173205616D03*
X250080466Y-68467729D03*
X250199094Y-66012868D03*
X250461158Y-67472794D03*
X254608590Y-121534022D03*
X257249287Y-62351160D03*
X262302584Y-60237471D03*
X263037486Y-64331925D03*
X267650388Y-60605986D03*
X271849908Y-63633140D03*
X275168740Y-121971472D03*
X276534836Y-67473316D03*
X276603576Y-172995640D03*
X276813552Y-62031022D03*
X277266951Y-68198326D03*
X278825616Y-68797705D03*
X283427796Y-173083130D03*
X286239392Y-65381785D03*
X289709578Y-173223114D03*
X293116000Y-62026800D03*
X297261280Y-76738480D03*
X299664120Y-74122280D03*
X299928280Y-78745080D03*
X301493431Y-74046080D03*
X302302250Y-66116687D03*
X303515500Y-88952746D03*
X303565560Y-78348840D03*
X303966880Y-74046080D03*
X304856909Y-66116687D03*
X306110640Y-74046080D03*
X306130960Y-78567280D03*
X307411568Y-66116687D03*
X308645560Y-74046080D03*
X308650640Y-78831440D03*
X309966227Y-66116687D03*
X311195720Y-78831440D03*
X312520886Y-66116687D03*
X314871702Y-71192276D03*
X315075545Y-66116687D03*
X316265388Y-73704406D03*
X316289040Y-78243970D03*
X316988960Y-87990356D03*
X317286426Y-147658536D03*
X317630206Y-66116687D03*
X317630206Y-71261001D03*
X319939898Y-71261001D03*
X322459562Y-71261001D03*
X322885786Y-63003212D03*
X324443108Y-92679820D03*
X326390000Y-117830600D03*
X333332092Y-169513538D03*
X342571036Y-93839906D03*
D11*
%TO.C,USB1*%
X274568468Y-65066022D03*
X274573468Y-66391022D03*
X275418468Y-65066022D03*
X275423468Y-66391022D03*
X276268468Y-65066022D03*
X276273468Y-66391022D03*
X277118468Y-65066022D03*
X277123468Y-66391022D03*
X277968468Y-65066022D03*
X277973468Y-66391022D03*
X278818468Y-65066022D03*
X278823468Y-66391022D03*
X279668468Y-65066022D03*
X279673468Y-66391022D03*
X280523468Y-65066022D03*
X280523468Y-66391022D03*
D12*
X273223468Y-61631022D02*
X273223468Y-62431022D01*
X273223468Y-64661022D02*
X273223468Y-66161022D01*
X281873468Y-61631022D02*
X281873468Y-62431022D01*
X281873468Y-64661022D02*
X281873468Y-66161022D01*
D13*
%TO.C,C3*%
X284477676Y-68904866D03*
X284477676Y-70404866D03*
D14*
%TO.C,F1*%
X270047614Y-59350838D03*
X270047614Y-64450838D03*
%TO.C,R7*%
X290026316Y-63073204D03*
%TO.C,R6*%
X290026316Y-65567034D03*
%TO.C,R2*%
X290026316Y-68060499D03*
%TO.C,R1*%
X290026316Y-70580211D03*
%TO.C,R3*%
X290026316Y-73152052D03*
%TO.C,R4*%
X290026316Y-75645517D03*
%TO.C,R5*%
X290026316Y-78138982D03*
%TO.C,R7*%
X295106316Y-63073204D03*
%TO.C,R6*%
X295106316Y-65567034D03*
%TO.C,R2*%
X295106316Y-68060499D03*
%TO.C,R1*%
X295106316Y-70580211D03*
%TO.C,R3*%
X295106316Y-73152052D03*
%TO.C,R4*%
X295106316Y-75645517D03*
%TO.C,R5*%
X295106316Y-78138982D03*
D15*
%TO.C,D1*%
X63600284Y-67475612D03*
X63600284Y-72555612D03*
%TO.C,D16*%
X66769747Y-69129141D03*
X66769747Y-74209141D03*
%TO.C,D31*%
X69939210Y-70782670D03*
X69939210Y-75862670D03*
%TO.C,D45*%
X73108673Y-72436199D03*
X73108673Y-77516199D03*
%TO.C,D60*%
X76278136Y-67475612D03*
X76278136Y-72555612D03*
%TO.C,D32*%
X79447599Y-69129141D03*
X79447599Y-74209141D03*
%TO.C,D17*%
X82617062Y-70782670D03*
X82617062Y-75862670D03*
%TO.C,D2*%
X85786525Y-72436199D03*
X85786525Y-77516199D03*
%TO.C,D3*%
X88955988Y-67475612D03*
X88955988Y-72555612D03*
%TO.C,D18*%
X92125451Y-69129141D03*
X92125451Y-74209141D03*
%TO.C,D33*%
X95294914Y-70782670D03*
X95294914Y-75862670D03*
%TO.C,D71*%
X96678750Y-148234400D03*
X96678750Y-153314400D03*
%TO.C,D46*%
X98464377Y-72436199D03*
X98464377Y-77516199D03*
%TO.C,D4*%
X101633840Y-67475612D03*
X101633840Y-72555612D03*
%TO.C,D19*%
X104803303Y-69129141D03*
X104803303Y-74209141D03*
%TO.C,D34*%
X107972766Y-70782670D03*
X107972766Y-75862670D03*
%TO.C,D47*%
X111142229Y-72436199D03*
X111142229Y-77516199D03*
%TO.C,D5*%
X114311692Y-67475612D03*
X114311692Y-72555612D03*
%TO.C,D20*%
X117481155Y-69129141D03*
X117481155Y-74209141D03*
%TO.C,D35*%
X120650618Y-70782670D03*
X120650618Y-75862670D03*
%TO.C,D48*%
X123820081Y-72436199D03*
X123820081Y-77516199D03*
%TO.C,D6*%
X126989544Y-67475612D03*
X126989544Y-72555612D03*
%TO.C,D21*%
X130159007Y-69129141D03*
X130159007Y-74209141D03*
%TO.C,D36*%
X133328470Y-70782670D03*
X133328470Y-75862670D03*
%TO.C,D49*%
X136497933Y-72436199D03*
X136497933Y-77516199D03*
%TO.C,D7*%
X139667396Y-67475612D03*
X139667396Y-72555612D03*
%TO.C,D22*%
X142836859Y-69129141D03*
X142836859Y-74209141D03*
%TO.C,D37*%
X146006322Y-70782670D03*
X146006322Y-75862670D03*
%TO.C,D50*%
X149175785Y-72436199D03*
X149175785Y-77516199D03*
%TO.C,D8*%
X152345248Y-67475612D03*
X152345248Y-72555612D03*
%TO.C,D23*%
X155514711Y-69129141D03*
X155514711Y-74209141D03*
%TO.C,D38*%
X158684174Y-70782670D03*
X158684174Y-75862670D03*
%TO.C,D51*%
X161853637Y-72436199D03*
X161853637Y-77516199D03*
%TO.C,D9*%
X165023100Y-67475612D03*
X165023100Y-72555612D03*
%TO.C,D24*%
X168192563Y-69129141D03*
X168192563Y-74209141D03*
%TO.C,D39*%
X171362026Y-70782670D03*
X171362026Y-75862670D03*
%TO.C,D52*%
X174531489Y-72436199D03*
X174531489Y-77516199D03*
%TO.C,D10*%
X177700952Y-67475612D03*
X177700952Y-72555612D03*
%TO.C,D25*%
X180870415Y-69129141D03*
X180870415Y-74209141D03*
%TO.C,D40*%
X184039878Y-70782670D03*
X184039878Y-75862670D03*
%TO.C,D53*%
X187209341Y-72436199D03*
X187209341Y-77516199D03*
%TO.C,D11*%
X190378804Y-67475612D03*
X190378804Y-72555612D03*
%TO.C,D26*%
X193548267Y-69129141D03*
X193548267Y-74209141D03*
%TO.C,D41*%
X196717730Y-70782670D03*
X196717730Y-75862670D03*
%TO.C,D54*%
X199887193Y-72436199D03*
X199887193Y-77516199D03*
%TO.C,D12*%
X203056656Y-67475612D03*
X203056656Y-72555612D03*
%TO.C,D27*%
X206226119Y-69129141D03*
X206226119Y-74209141D03*
%TO.C,D42*%
X209395582Y-70782670D03*
X209395582Y-75862670D03*
%TO.C,D55*%
X212565045Y-72436199D03*
X212565045Y-77516199D03*
%TO.C,D13*%
X215734508Y-67475612D03*
X215734508Y-72555612D03*
%TO.C,D28*%
X218886475Y-69129141D03*
X218886475Y-74209141D03*
%TO.C,D56*%
X222038442Y-70782670D03*
X222038442Y-75862670D03*
%TO.C,D64*%
X225190409Y-72436199D03*
X225190409Y-77516199D03*
%TO.C,D14*%
X228342376Y-67475612D03*
X228342376Y-72555612D03*
%TO.C,D29*%
X231493149Y-69129141D03*
X231493149Y-74209141D03*
%TO.C,D43*%
X234643922Y-70782670D03*
X234643922Y-75862670D03*
%TO.C,D57*%
X237794695Y-72436199D03*
X237794695Y-77516199D03*
%TO.C,D66*%
X240945468Y-67475612D03*
X240945468Y-72555612D03*
%TO.C,D65*%
X244096241Y-69129141D03*
X244096241Y-74209141D03*
%TO.C,D68*%
X247184965Y-70782670D03*
X247184965Y-75862670D03*
%TO.C,D63*%
X250335738Y-72436199D03*
X250335738Y-77516199D03*
%TO.C,D62*%
X253486511Y-67475612D03*
X253486511Y-72555612D03*
%TO.C,D61*%
X256637284Y-69129141D03*
X256637284Y-74209141D03*
%TO.C,D59*%
X259788058Y-70782670D03*
X259788058Y-75862670D03*
%TO.C,D67*%
X262938832Y-72436199D03*
X262938832Y-77516199D03*
%TO.C,D58*%
X266089606Y-67475612D03*
X266089606Y-72555612D03*
%TO.C,D44*%
X269364481Y-69129141D03*
X269364481Y-74209141D03*
%TO.C,D30*%
X272453205Y-70782670D03*
X272453205Y-75862670D03*
%TO.C,D15*%
X275541929Y-72436199D03*
X275541929Y-77516199D03*
%TO.C,D70*%
X283305310Y-73162196D03*
X283305310Y-78242196D03*
%TO.C,D69*%
X286174982Y-73162196D03*
X286174982Y-78242196D03*
%TO.C,U1*%
X299753430Y-61149182D03*
X299753430Y-76389182D03*
X302293430Y-61149182D03*
X302293430Y-76389182D03*
X304833430Y-61149182D03*
X304833430Y-76389182D03*
X307373430Y-61149182D03*
X307373430Y-76389182D03*
X309913430Y-61149182D03*
X309913430Y-76389182D03*
X312453430Y-61149182D03*
X312453430Y-76389182D03*
X314993430Y-61149182D03*
X314993430Y-76389182D03*
X317533430Y-61149182D03*
X317533430Y-76389182D03*
X320073430Y-61149182D03*
X320073430Y-76389182D03*
%TO.C,C5*%
X320471062Y-78716416D03*
%TO.C,U1*%
X322613430Y-61149182D03*
X322613430Y-76389182D03*
%TO.C,C4*%
X325125530Y-58926178D03*
%TO.C,U1*%
X325153430Y-61149182D03*
X325153430Y-76389182D03*
%TO.C,C5*%
X325471062Y-78716416D03*
%TO.C,C2*%
X327680238Y-79506040D03*
X327680238Y-82006040D03*
%TO.C,U1*%
X327693430Y-61149182D03*
X327693430Y-76389182D03*
%TO.C,C4*%
X330125530Y-58926178D03*
%TO.C,U1*%
X330233430Y-61149182D03*
X330233430Y-76389182D03*
%TO.C,Y1*%
X332371644Y-80256240D03*
%TO.C,U1*%
X332773430Y-61149182D03*
X332773430Y-76389182D03*
X335313430Y-61149182D03*
X335313430Y-76389182D03*
%TO.C,Y1*%
X337251644Y-80256240D03*
%TO.C,U1*%
X337853430Y-61149182D03*
X337853430Y-76389182D03*
X340393430Y-61149182D03*
X340393430Y-76389182D03*
%TO.C,C1*%
X341906112Y-79506040D03*
X341906112Y-82006040D03*
%TO.C,U1*%
X342933430Y-61149182D03*
X342933430Y-76389182D03*
X345473430Y-61149182D03*
X345473430Y-76389182D03*
X348013430Y-61149182D03*
X348013430Y-76389182D03*
D16*
%TO.C,LED1*%
X284127716Y-61970830D03*
X286667716Y-61970830D03*
D17*
%TO.C,J1*%
X250213830Y-60350870D03*
X250213830Y-62890870D03*
X252753830Y-60350870D03*
X252753830Y-62890870D03*
X255293830Y-60350870D03*
X255293830Y-62890870D03*
D18*
%TO.C,RESET1*%
X226485732Y-59836074D03*
X226485732Y-64336074D03*
X232985732Y-59836074D03*
X232985732Y-64336074D03*
%TO.C,BOOT1*%
X238485732Y-59836074D03*
X238485732Y-64336074D03*
X244985732Y-59836074D03*
X244985732Y-64336074D03*
D19*
%TO.C,SW1*%
X59531250Y-92233750D03*
%TO.C,SW59*%
X61912450Y-168423620D03*
%TO.C,SW69*%
X61912500Y-130323620D03*
%TO.C,SW78*%
X61912500Y-149383750D03*
%TO.C,SW70*%
X64293700Y-168423620D03*
%TO.C,SW16*%
X64293750Y-111283750D03*
%TO.C,SW1*%
X65881250Y-89693750D03*
%TO.C,SW31*%
X66675050Y-130323620D03*
%TO.C,SW59*%
X68262450Y-165883620D03*
%TO.C,SW69*%
X68262500Y-127783620D03*
%TO.C,SW78*%
X68262500Y-146843750D03*
%TO.C,SW70*%
X70643700Y-165883620D03*
%TO.C,SW16*%
X70643750Y-108743750D03*
%TO.C,SW45*%
X71437450Y-149383750D03*
%TO.C,SW31*%
X73025050Y-127783620D03*
%TO.C,SW45*%
X77787450Y-146843750D03*
%TO.C,SW2*%
X78581250Y-92233750D03*
%TO.C,SW75*%
X83343750Y-149383750D03*
%TO.C,SW2*%
X84931250Y-89693750D03*
%TO.C,SW60*%
X85725050Y-168433750D03*
%TO.C,SW17*%
X88106250Y-111283750D03*
%TO.C,SW75*%
X89693750Y-146843750D03*
%TO.C,SW60*%
X92075050Y-165893750D03*
%TO.C,SW32*%
X92868750Y-130333750D03*
%TO.C,SW71*%
X92893031Y-168429819D03*
%TO.C,SW17*%
X94456250Y-108743750D03*
%TO.C,SW3*%
X97631250Y-92233750D03*
%TO.C,SW32*%
X99218750Y-127793750D03*
%TO.C,SW71*%
X99243031Y-165889819D03*
%TO.C,SW46*%
X102393750Y-149383750D03*
%TO.C,SW3*%
X103981250Y-89693750D03*
%TO.C,SW18*%
X107156250Y-111283750D03*
%TO.C,SW46*%
X108743750Y-146843750D03*
%TO.C,SW61*%
X109537450Y-168423620D03*
%TO.C,SW33*%
X111918750Y-130333750D03*
%TO.C,SW18*%
X113506250Y-108743750D03*
%TO.C,SW61*%
X115887450Y-165883620D03*
%TO.C,SW4*%
X116681250Y-92233750D03*
%TO.C,SW33*%
X118268750Y-127793750D03*
%TO.C,SW47*%
X121443750Y-149383750D03*
%TO.C,SW4*%
X123031250Y-89693750D03*
%TO.C,SW19*%
X126206250Y-111283750D03*
%TO.C,SW47*%
X127793750Y-146843750D03*
%TO.C,SW34*%
X130968750Y-130333750D03*
%TO.C,SW19*%
X132556250Y-108743750D03*
%TO.C,SW5*%
X135731250Y-92233750D03*
%TO.C,SW34*%
X137318750Y-127793750D03*
%TO.C,SW48*%
X140493750Y-149383750D03*
%TO.C,SW5*%
X142081250Y-89693750D03*
%TO.C,SW20*%
X145256250Y-111283750D03*
%TO.C,SW48*%
X146843750Y-146843750D03*
%TO.C,SW35*%
X150018250Y-130333750D03*
%TO.C,SW20*%
X151606250Y-108743750D03*
%TO.C,SW6*%
X154781250Y-92233750D03*
%TO.C,SW35*%
X156368250Y-127793750D03*
%TO.C,SW49*%
X159544250Y-149383750D03*
%TO.C,SW6*%
X161131250Y-89693750D03*
%TO.C,SW21*%
X164306250Y-111283750D03*
%TO.C,SW49*%
X165894250Y-146843750D03*
%TO.C,SW36*%
X169068250Y-130333750D03*
%TO.C,SW21*%
X170656250Y-108743750D03*
%TO.C,SW7*%
X173831250Y-92233750D03*
%TO.C,SW72*%
X173857573Y-168441640D03*
%TO.C,SW36*%
X175418250Y-127793750D03*
%TO.C,SW50*%
X178594250Y-149383750D03*
%TO.C,SW7*%
X180181250Y-89693750D03*
%TO.C,SW72*%
X180207573Y-165901640D03*
%TO.C,SW62*%
X180975250Y-168433750D03*
%TO.C,SW22*%
X183356250Y-111283750D03*
%TO.C,SW50*%
X184944250Y-146843750D03*
%TO.C,SW62*%
X187325250Y-165893750D03*
%TO.C,SW37*%
X188118250Y-130333750D03*
%TO.C,SW22*%
X189706250Y-108743750D03*
%TO.C,SW8*%
X192881250Y-92233750D03*
%TO.C,SW37*%
X194468250Y-127793750D03*
%TO.C,SW51*%
X197644250Y-149383750D03*
%TO.C,SW8*%
X199231250Y-89693750D03*
%TO.C,SW23*%
X202406250Y-111283750D03*
%TO.C,SW51*%
X203994250Y-146843750D03*
%TO.C,SW38*%
X207168250Y-130333750D03*
%TO.C,SW23*%
X208756250Y-108743750D03*
%TO.C,SW9*%
X211931250Y-92233750D03*
%TO.C,SW38*%
X213518250Y-127793750D03*
%TO.C,SW52*%
X216694250Y-149383750D03*
%TO.C,SW9*%
X218281250Y-89693750D03*
%TO.C,SW24*%
X221456250Y-111283750D03*
%TO.C,SW52*%
X223044250Y-146843750D03*
%TO.C,SW39*%
X226218250Y-130333750D03*
%TO.C,SW24*%
X227806250Y-108743750D03*
%TO.C,SW10*%
X230981250Y-92233750D03*
%TO.C,SW39*%
X232568250Y-127793750D03*
%TO.C,SW53*%
X235744250Y-149383750D03*
%TO.C,SW10*%
X237331250Y-89693750D03*
%TO.C,SW25*%
X240506250Y-111283750D03*
%TO.C,SW53*%
X242094250Y-146843750D03*
%TO.C,SW40*%
X245268250Y-130333750D03*
%TO.C,SW25*%
X246856250Y-108743750D03*
%TO.C,SW11*%
X250031250Y-92233750D03*
%TO.C,SW63*%
X250060884Y-168423620D03*
%TO.C,SW40*%
X251618250Y-127793750D03*
%TO.C,SW54*%
X254794250Y-149383750D03*
%TO.C,SW73*%
X254833936Y-168433750D03*
%TO.C,SW11*%
X256381250Y-89693750D03*
%TO.C,SW63*%
X256410884Y-165883620D03*
%TO.C,SW26*%
X259556250Y-111283750D03*
%TO.C,SW54*%
X261144250Y-146843750D03*
%TO.C,SW73*%
X261183936Y-165893750D03*
%TO.C,SW41*%
X264318250Y-130333750D03*
%TO.C,SW26*%
X265906250Y-108743750D03*
%TO.C,SW12*%
X269081250Y-92233750D03*
%TO.C,SW64*%
X269116206Y-168433750D03*
%TO.C,SW41*%
X270668250Y-127793750D03*
%TO.C,SW55*%
X273844250Y-149383750D03*
%TO.C,SW12*%
X275431250Y-89693750D03*
%TO.C,SW64*%
X275466206Y-165893750D03*
%TO.C,SW27*%
X278606250Y-111283750D03*
%TO.C,SW55*%
X280194250Y-146843750D03*
%TO.C,SW42*%
X283368250Y-130333750D03*
%TO.C,SW74*%
X283390128Y-168433750D03*
%TO.C,SW27*%
X284956250Y-108743750D03*
%TO.C,SW13*%
X288131250Y-92233750D03*
%TO.C,SW68*%
X288171528Y-168423620D03*
%TO.C,SW42*%
X289718250Y-127793750D03*
%TO.C,SW74*%
X289740128Y-165893750D03*
%TO.C,SW13*%
X294481250Y-89693750D03*
%TO.C,SW68*%
X294521528Y-165883620D03*
%TO.C,SW28*%
X297656250Y-111283750D03*
%TO.C,SW56*%
X300037250Y-149383750D03*
%TO.C,SW77*%
X302418750Y-130333750D03*
%TO.C,SW28*%
X304006250Y-108743750D03*
%TO.C,SW56*%
X306387250Y-146843750D03*
%TO.C,SW65*%
X307181250Y-168433750D03*
%TO.C,SW77*%
X308768750Y-127793750D03*
%TO.C,SW65*%
X313531250Y-165893750D03*
%TO.C,SW43*%
X314325250Y-130333750D03*
%TO.C,SW14*%
X316706250Y-92233750D03*
%TO.C,SW43*%
X320675250Y-127793750D03*
%TO.C,SW29*%
X321468250Y-111283750D03*
%TO.C,SW14*%
X323056250Y-89693750D03*
%TO.C,SW76*%
X323850000Y-120808750D03*
%TO.C,SW57*%
X326231250Y-149383750D03*
%TO.C,SW66*%
X326231250Y-168433750D03*
%TO.C,SW29*%
X327818250Y-108743750D03*
%TO.C,SW76*%
X330200000Y-118268750D03*
%TO.C,SW57*%
X332581250Y-146843750D03*
%TO.C,SW66*%
X332581250Y-165893750D03*
%TO.C,SW15*%
X345281250Y-92233750D03*
%TO.C,SW30*%
X345281250Y-111283750D03*
%TO.C,SW44*%
X345281250Y-130333750D03*
%TO.C,SW58*%
X345281250Y-149383750D03*
%TO.C,SW67*%
X345281250Y-168433750D03*
%TO.C,SW15*%
X351631250Y-89693750D03*
%TO.C,SW30*%
X351631250Y-108743750D03*
%TO.C,SW44*%
X351631250Y-127793750D03*
%TO.C,SW58*%
X351631250Y-146843750D03*
%TO.C,SW67*%
X351631250Y-165893750D03*
D20*
%TO.C,REF\u002A\u002A*%
X57766382Y-61694750D03*
X57766382Y-80444750D03*
X96565888Y-161146960D03*
X113754723Y-104302994D03*
X206213345Y-61694750D03*
X206213345Y-80444750D03*
X206213345Y-104302994D03*
X206213345Y-166958110D03*
X298671968Y-104302994D03*
X315860803Y-161146960D03*
X354660309Y-61694750D03*
X354660309Y-80444750D03*
M02*
