%TF.GenerationSoftware,KiCad,Pcbnew,8.0.2*%
%TF.CreationDate,2024-05-19T23:09:39-04:00*%
%TF.ProjectId,discipline-pcb,64697363-6970-46c6-996e-652d7063622e,1.0*%
%TF.SameCoordinates,Original*%
%TF.FileFunction,Soldermask,Bot*%
%TF.FilePolarity,Negative*%
%FSLAX46Y46*%
G04 Gerber Fmt 4.6, Leading zero omitted, Abs format (unit mm)*
G04 Created by KiCad (PCBNEW 8.0.2) date 2024-05-19 23:09:39*
%MOMM*%
%LPD*%
G01*
G04 APERTURE LIST*
%ADD10C,0.150000*%
%ADD11C,0.100000*%
%ADD12C,0.400000*%
%ADD13C,0.010000*%
%ADD14C,1.700000*%
%ADD15C,4.000000*%
%ADD16C,2.200000*%
%ADD17C,3.050000*%
%ADD18C,4.400000*%
%ADD19C,3.987800*%
%ADD20C,3.048000*%
%ADD21R,1.600000X1.600000*%
%ADD22O,1.600000X1.600000*%
%ADD23C,1.400000*%
%ADD24O,1.400000X1.400000*%
%ADD25C,2.000000*%
%ADD26R,1.800000X1.800000*%
%ADD27C,1.800000*%
%ADD28R,1.200000X1.200000*%
%ADD29C,1.200000*%
%ADD30C,1.600000*%
%ADD31O,0.650000X1.000000*%
%ADD32O,0.900000X2.400000*%
%ADD33O,0.900000X1.700000*%
%ADD34C,1.500000*%
%ADD35R,1.700000X1.700000*%
G04 APERTURE END LIST*
D10*
X364500628Y-124295423D02*
X364500064Y-124866851D01*
X364500346Y-124581137D02*
X363500347Y-124580149D01*
X363500347Y-124580149D02*
X363643110Y-124675528D01*
X363643110Y-124675528D02*
X363738254Y-124770860D01*
X363738254Y-124770860D02*
X363785779Y-124866146D01*
X363596243Y-123913577D02*
X363548671Y-123865911D01*
X363548671Y-123865911D02*
X363501146Y-123770626D01*
X363501146Y-123770626D02*
X363501382Y-123532531D01*
X363501382Y-123532531D02*
X363549095Y-123437340D01*
X363549095Y-123437340D02*
X363596761Y-123389768D01*
X363596761Y-123389768D02*
X363692046Y-123342243D01*
X363692046Y-123342243D02*
X363787284Y-123342337D01*
X363787284Y-123342337D02*
X363930094Y-123390097D01*
X363930094Y-123390097D02*
X364500958Y-123962090D01*
X364500958Y-123962090D02*
X364501569Y-123343042D01*
X363501899Y-123008721D02*
X363502511Y-122389674D01*
X363502511Y-122389674D02*
X363883133Y-122723383D01*
X363883133Y-122723383D02*
X363883275Y-122580526D01*
X363883275Y-122580526D02*
X363930988Y-122485335D01*
X363930988Y-122485335D02*
X363978654Y-122437763D01*
X363978654Y-122437763D02*
X364073939Y-122390238D01*
X364073939Y-122390238D02*
X364312034Y-122390474D01*
X364312034Y-122390474D02*
X364407225Y-122438187D01*
X364407225Y-122438187D02*
X364454797Y-122485853D01*
X364454797Y-122485853D02*
X364502322Y-122581138D01*
X364502322Y-122581138D02*
X364502040Y-122866852D01*
X364502040Y-122866852D02*
X364454327Y-122962043D01*
X364454327Y-122962043D02*
X364406660Y-123009615D01*
X364407695Y-121961996D02*
X364455361Y-121914424D01*
X364455361Y-121914424D02*
X364502933Y-121962090D01*
X364502933Y-121962090D02*
X364455267Y-122009662D01*
X364455267Y-122009662D02*
X364407695Y-121961996D01*
X364407695Y-121961996D02*
X364502933Y-121962090D01*
X364503451Y-121438282D02*
X364503639Y-121247806D01*
X364503639Y-121247806D02*
X364456114Y-121152521D01*
X364456114Y-121152521D02*
X364408542Y-121104854D01*
X364408542Y-121104854D02*
X364265779Y-121009475D01*
X364265779Y-121009475D02*
X364075350Y-120961668D01*
X364075350Y-120961668D02*
X363694398Y-120961292D01*
X363694398Y-120961292D02*
X363599113Y-121008817D01*
X363599113Y-121008817D02*
X363551447Y-121056389D01*
X363551447Y-121056389D02*
X363503734Y-121151580D01*
X363503734Y-121151580D02*
X363503545Y-121342056D01*
X363503545Y-121342056D02*
X363551070Y-121437341D01*
X363551070Y-121437341D02*
X363598642Y-121485007D01*
X363598642Y-121485007D02*
X363693833Y-121532720D01*
X363693833Y-121532720D02*
X363931929Y-121532955D01*
X363931929Y-121532955D02*
X364027214Y-121485430D01*
X364027214Y-121485430D02*
X364074880Y-121437858D01*
X364074880Y-121437858D02*
X364122593Y-121342667D01*
X364122593Y-121342667D02*
X364122781Y-121152191D01*
X364122781Y-121152191D02*
X364075256Y-121056906D01*
X364075256Y-121056906D02*
X364027684Y-121009240D01*
X364027684Y-121009240D02*
X363932493Y-120961527D01*
X364504392Y-120485901D02*
X364504580Y-120295425D01*
X364504580Y-120295425D02*
X364457055Y-120200140D01*
X364457055Y-120200140D02*
X364409483Y-120152474D01*
X364409483Y-120152474D02*
X364266720Y-120057095D01*
X364266720Y-120057095D02*
X364076291Y-120009288D01*
X364076291Y-120009288D02*
X363695339Y-120008911D01*
X363695339Y-120008911D02*
X363600054Y-120056436D01*
X363600054Y-120056436D02*
X363552388Y-120104008D01*
X363552388Y-120104008D02*
X363504674Y-120199199D01*
X363504674Y-120199199D02*
X363504486Y-120389675D01*
X363504486Y-120389675D02*
X363552011Y-120484960D01*
X363552011Y-120484960D02*
X363599583Y-120532626D01*
X363599583Y-120532626D02*
X363694774Y-120580340D01*
X363694774Y-120580340D02*
X363932869Y-120580575D01*
X363932869Y-120580575D02*
X364028154Y-120533050D01*
X364028154Y-120533050D02*
X364075820Y-120485478D01*
X364075820Y-120485478D02*
X364123534Y-120390287D01*
X364123534Y-120390287D02*
X364123722Y-120199811D01*
X364123722Y-120199811D02*
X364076197Y-120104526D01*
X364076197Y-120104526D02*
X364028625Y-120056860D01*
X364028625Y-120056860D02*
X363933434Y-120009146D01*
X363505474Y-119389676D02*
X363505568Y-119294438D01*
X363505568Y-119294438D02*
X363553281Y-119199247D01*
X363553281Y-119199247D02*
X363600947Y-119151675D01*
X363600947Y-119151675D02*
X363696232Y-119104150D01*
X363696232Y-119104150D02*
X363886756Y-119056719D01*
X363886756Y-119056719D02*
X364124851Y-119056954D01*
X364124851Y-119056954D02*
X364315280Y-119104761D01*
X364315280Y-119104761D02*
X364410471Y-119152474D01*
X364410471Y-119152474D02*
X364458043Y-119200140D01*
X364458043Y-119200140D02*
X364505568Y-119295426D01*
X364505568Y-119295426D02*
X364505474Y-119390664D01*
X364505474Y-119390664D02*
X364457761Y-119485855D01*
X364457761Y-119485855D02*
X364410094Y-119533427D01*
X364410094Y-119533427D02*
X364314809Y-119580951D01*
X364314809Y-119580951D02*
X364124286Y-119628382D01*
X364124286Y-119628382D02*
X363886191Y-119628147D01*
X363886191Y-119628147D02*
X363695762Y-119580340D01*
X363695762Y-119580340D02*
X363600571Y-119532627D01*
X363600571Y-119532627D02*
X363552999Y-119484961D01*
X363552999Y-119484961D02*
X363505474Y-119389676D01*
X364506273Y-118581140D02*
X364506462Y-118390664D01*
X364506462Y-118390664D02*
X364458937Y-118295379D01*
X364458937Y-118295379D02*
X364411365Y-118247713D01*
X364411365Y-118247713D02*
X364268602Y-118152334D01*
X364268602Y-118152334D02*
X364078173Y-118104526D01*
X364078173Y-118104526D02*
X363697220Y-118104150D01*
X363697220Y-118104150D02*
X363601935Y-118151675D01*
X363601935Y-118151675D02*
X363554269Y-118199247D01*
X363554269Y-118199247D02*
X363506556Y-118294438D01*
X363506556Y-118294438D02*
X363506368Y-118484914D01*
X363506368Y-118484914D02*
X363553893Y-118580199D01*
X363553893Y-118580199D02*
X363601465Y-118627865D01*
X363601465Y-118627865D02*
X363696656Y-118675578D01*
X363696656Y-118675578D02*
X363934751Y-118675814D01*
X363934751Y-118675814D02*
X364030036Y-118628289D01*
X364030036Y-118628289D02*
X364077702Y-118580717D01*
X364077702Y-118580717D02*
X364125415Y-118485526D01*
X364125415Y-118485526D02*
X364125603Y-118295050D01*
X364125603Y-118295050D02*
X364078078Y-118199765D01*
X364078078Y-118199765D02*
X364030506Y-118152098D01*
X364030506Y-118152098D02*
X363935315Y-118104385D01*
X364507920Y-116914474D02*
X363841253Y-116913815D01*
X363936491Y-116913909D02*
X363888920Y-116866243D01*
X363888920Y-116866243D02*
X363841395Y-116770958D01*
X363841395Y-116770958D02*
X363841536Y-116628101D01*
X363841536Y-116628101D02*
X363889249Y-116532910D01*
X363889249Y-116532910D02*
X363984534Y-116485385D01*
X363984534Y-116485385D02*
X364508343Y-116485903D01*
X363984534Y-116485385D02*
X363889343Y-116437672D01*
X363889343Y-116437672D02*
X363841818Y-116342387D01*
X363841818Y-116342387D02*
X363841959Y-116199530D01*
X363841959Y-116199530D02*
X363889672Y-116104339D01*
X363889672Y-116104339D02*
X363984957Y-116056814D01*
X363984957Y-116056814D02*
X364508767Y-116057332D01*
X364509237Y-115581142D02*
X363842571Y-115580483D01*
X363937809Y-115580577D02*
X363890237Y-115532911D01*
X363890237Y-115532911D02*
X363842712Y-115437626D01*
X363842712Y-115437626D02*
X363842853Y-115294769D01*
X363842853Y-115294769D02*
X363890566Y-115199578D01*
X363890566Y-115199578D02*
X363985851Y-115152053D01*
X363985851Y-115152053D02*
X364509660Y-115152570D01*
X363985851Y-115152053D02*
X363890660Y-115104340D01*
X363890660Y-115104340D02*
X363843135Y-115009055D01*
X363843135Y-115009055D02*
X363843276Y-114866198D01*
X363843276Y-114866198D02*
X363890989Y-114771007D01*
X363890989Y-114771007D02*
X363986274Y-114723482D01*
X363986274Y-114723482D02*
X364510084Y-114723999D01*
D11*
X359991602Y-181762632D02*
X365725455Y-181768296D01*
X360114088Y-57771804D02*
X365847941Y-57777468D01*
X365139035Y-181767717D02*
X365261521Y-57776889D01*
X365139035Y-181767717D02*
X365261521Y-57776889D01*
X365139035Y-181767717D02*
X364553727Y-180640634D01*
X365139035Y-181767717D02*
X365726568Y-180641793D01*
X365261521Y-57776889D02*
X365846829Y-58903972D01*
X365261521Y-57776889D02*
X364673988Y-58902813D01*
D10*
X201550886Y-184947369D02*
X202169930Y-184949673D01*
X202169930Y-184949673D02*
X201835181Y-185329382D01*
X201835181Y-185329382D02*
X201978037Y-185329914D01*
X201978037Y-185329914D02*
X202073097Y-185377887D01*
X202073097Y-185377887D02*
X202120539Y-185425683D01*
X202120539Y-185425683D02*
X202167803Y-185521098D01*
X202167803Y-185521098D02*
X202166917Y-185759191D01*
X202166917Y-185759191D02*
X202118944Y-185854251D01*
X202118944Y-185854251D02*
X202071148Y-185901693D01*
X202071148Y-185901693D02*
X201975733Y-185948957D01*
X201975733Y-185948957D02*
X201690021Y-185947894D01*
X201690021Y-185947894D02*
X201594961Y-185899921D01*
X201594961Y-185899921D02*
X201547519Y-185852125D01*
X202788973Y-184951977D02*
X202884210Y-184952331D01*
X202884210Y-184952331D02*
X202979271Y-185000305D01*
X202979271Y-185000305D02*
X203026712Y-185048101D01*
X203026712Y-185048101D02*
X203073976Y-185143515D01*
X203073976Y-185143515D02*
X203120886Y-185334167D01*
X203120886Y-185334167D02*
X203120000Y-185572261D01*
X203120000Y-185572261D02*
X203071672Y-185762559D01*
X203071672Y-185762559D02*
X203023699Y-185857619D01*
X203023699Y-185857619D02*
X202975903Y-185905060D01*
X202975903Y-185905060D02*
X202880489Y-185952324D01*
X202880489Y-185952324D02*
X202785251Y-185951970D01*
X202785251Y-185951970D02*
X202690191Y-185903997D01*
X202690191Y-185903997D02*
X202642750Y-185856201D01*
X202642750Y-185856201D02*
X202595485Y-185760786D01*
X202595485Y-185760786D02*
X202548575Y-185570134D01*
X202548575Y-185570134D02*
X202549462Y-185332041D01*
X202549462Y-185332041D02*
X202597789Y-185141743D01*
X202597789Y-185141743D02*
X202645762Y-185046683D01*
X202645762Y-185046683D02*
X202693558Y-184999241D01*
X202693558Y-184999241D02*
X202788973Y-184951977D01*
X204027060Y-184956585D02*
X203550873Y-184954813D01*
X203550873Y-184954813D02*
X203501482Y-185430822D01*
X203501482Y-185430822D02*
X203549277Y-185383381D01*
X203549277Y-185383381D02*
X203644692Y-185336117D01*
X203644692Y-185336117D02*
X203882786Y-185337003D01*
X203882786Y-185337003D02*
X203977846Y-185384976D01*
X203977846Y-185384976D02*
X204025287Y-185432772D01*
X204025287Y-185432772D02*
X204072552Y-185528187D01*
X204072552Y-185528187D02*
X204071666Y-185766280D01*
X204071666Y-185766280D02*
X204023692Y-185861340D01*
X204023692Y-185861340D02*
X203975896Y-185908782D01*
X203975896Y-185908782D02*
X203880482Y-185956046D01*
X203880482Y-185956046D02*
X203642388Y-185955160D01*
X203642388Y-185955160D02*
X203547328Y-185907187D01*
X203547328Y-185907187D02*
X203499887Y-185859391D01*
X204499880Y-185863113D02*
X204547321Y-185910909D01*
X204547321Y-185910909D02*
X204499525Y-185958350D01*
X204499525Y-185958350D02*
X204452084Y-185910554D01*
X204452084Y-185910554D02*
X204499880Y-185863113D01*
X204499880Y-185863113D02*
X204499525Y-185958350D01*
X205408002Y-184961724D02*
X205217527Y-184961015D01*
X205217527Y-184961015D02*
X205122113Y-185008280D01*
X205122113Y-185008280D02*
X205074317Y-185055721D01*
X205074317Y-185055721D02*
X204978547Y-185198223D01*
X204978547Y-185198223D02*
X204930220Y-185388520D01*
X204930220Y-185388520D02*
X204928802Y-185769470D01*
X204928802Y-185769470D02*
X204976066Y-185864885D01*
X204976066Y-185864885D02*
X205023508Y-185912681D01*
X205023508Y-185912681D02*
X205118568Y-185960654D01*
X205118568Y-185960654D02*
X205309043Y-185961363D01*
X205309043Y-185961363D02*
X205404458Y-185914099D01*
X205404458Y-185914099D02*
X205452254Y-185866657D01*
X205452254Y-185866657D02*
X205500227Y-185771597D01*
X205500227Y-185771597D02*
X205501113Y-185533503D01*
X205501113Y-185533503D02*
X205453849Y-185438089D01*
X205453849Y-185438089D02*
X205406407Y-185390293D01*
X205406407Y-185390293D02*
X205311347Y-185342320D01*
X205311347Y-185342320D02*
X205120872Y-185341611D01*
X205120872Y-185341611D02*
X205025457Y-185388875D01*
X205025457Y-185388875D02*
X204977661Y-185436316D01*
X204977661Y-185436316D02*
X204929688Y-185531377D01*
X206122283Y-184964383D02*
X206217520Y-184964737D01*
X206217520Y-184964737D02*
X206312581Y-185012710D01*
X206312581Y-185012710D02*
X206360022Y-185060506D01*
X206360022Y-185060506D02*
X206407286Y-185155921D01*
X206407286Y-185155921D02*
X206454196Y-185346573D01*
X206454196Y-185346573D02*
X206453310Y-185584667D01*
X206453310Y-185584667D02*
X206404982Y-185774964D01*
X206404982Y-185774964D02*
X206357009Y-185870024D01*
X206357009Y-185870024D02*
X206309213Y-185917466D01*
X206309213Y-185917466D02*
X206213799Y-185964730D01*
X206213799Y-185964730D02*
X206118561Y-185964376D01*
X206118561Y-185964376D02*
X206023501Y-185916403D01*
X206023501Y-185916403D02*
X205976059Y-185868607D01*
X205976059Y-185868607D02*
X205928795Y-185773192D01*
X205928795Y-185773192D02*
X205881885Y-185582540D01*
X205881885Y-185582540D02*
X205882772Y-185344446D01*
X205882772Y-185344446D02*
X205931099Y-185154149D01*
X205931099Y-185154149D02*
X205979072Y-185059088D01*
X205979072Y-185059088D02*
X206026868Y-185011647D01*
X206026868Y-185011647D02*
X206122283Y-184964383D01*
X207311510Y-185302144D02*
X207309029Y-185968806D01*
X207074835Y-184920308D02*
X206834083Y-185633703D01*
X206834083Y-185633703D02*
X207453126Y-185636007D01*
X207741319Y-184970408D02*
X208407981Y-184972889D01*
X208407981Y-184972889D02*
X207975691Y-185971287D01*
X209547109Y-185977136D02*
X209549590Y-185310474D01*
X209549236Y-185405711D02*
X209597032Y-185358270D01*
X209597032Y-185358270D02*
X209692447Y-185311005D01*
X209692447Y-185311005D02*
X209835303Y-185311537D01*
X209835303Y-185311537D02*
X209930363Y-185359510D01*
X209930363Y-185359510D02*
X209977627Y-185454925D01*
X209977627Y-185454925D02*
X209975678Y-185978731D01*
X209977627Y-185454925D02*
X210025600Y-185359865D01*
X210025600Y-185359865D02*
X210121015Y-185312600D01*
X210121015Y-185312600D02*
X210263871Y-185313132D01*
X210263871Y-185313132D02*
X210358931Y-185361105D01*
X210358931Y-185361105D02*
X210406196Y-185456520D01*
X210406196Y-185456520D02*
X210404246Y-185980326D01*
X210880433Y-185982098D02*
X210882914Y-185315436D01*
X210882560Y-185410673D02*
X210930356Y-185363232D01*
X210930356Y-185363232D02*
X211025770Y-185315968D01*
X211025770Y-185315968D02*
X211168626Y-185316499D01*
X211168626Y-185316499D02*
X211263687Y-185364473D01*
X211263687Y-185364473D02*
X211310951Y-185459887D01*
X211310951Y-185459887D02*
X211309001Y-185983693D01*
X211310951Y-185459887D02*
X211358924Y-185364827D01*
X211358924Y-185364827D02*
X211454339Y-185317563D01*
X211454339Y-185317563D02*
X211597195Y-185318094D01*
X211597195Y-185318094D02*
X211692255Y-185366068D01*
X211692255Y-185366068D02*
X211739519Y-185461482D01*
X211739519Y-185461482D02*
X211737570Y-185985288D01*
D11*
X53904669Y-181107267D02*
X53883931Y-186679410D01*
X359507239Y-182244637D02*
X359486501Y-187816780D01*
X53886114Y-186092994D02*
X359488684Y-187230364D01*
X53886114Y-186092994D02*
X359488684Y-187230364D01*
X53886114Y-186092994D02*
X55014792Y-185510770D01*
X53886114Y-186092994D02*
X55010427Y-186683603D01*
X359488684Y-187230364D02*
X358360006Y-187812588D01*
X359488684Y-187230364D02*
X358364371Y-186639755D01*
D12*
X166305144Y-160474210D02*
X144025144Y-160474210D01*
X166325144Y-167154210D02*
X144025144Y-167154210D01*
X144035144Y-167154210D02*
G75*
G02*
X144035144Y-160474210I0J3340000D01*
G01*
X166335144Y-160474210D02*
G75*
G02*
X166335144Y-167154210I0J-3340000D01*
G01*
D13*
X150591802Y-164650234D02*
X150346944Y-164629968D01*
X150346944Y-162671099D01*
X150469373Y-162660967D01*
X150591802Y-162650834D01*
X150591802Y-164650234D01*
G36*
X150591802Y-164650234D02*
G01*
X150346944Y-164629968D01*
X150346944Y-162671099D01*
X150469373Y-162660967D01*
X150591802Y-162650834D01*
X150591802Y-164650234D01*
G37*
X162467958Y-163617489D02*
X162468441Y-163673398D01*
X162469827Y-163913238D01*
X162470004Y-164130887D01*
X162469043Y-164317724D01*
X162467013Y-164465130D01*
X162463982Y-164564485D01*
X162460021Y-164607170D01*
X162423078Y-164635155D01*
X162337078Y-164640216D01*
X162230748Y-164629968D01*
X162230748Y-162671099D01*
X162459283Y-162671099D01*
X162467958Y-163617489D01*
G36*
X162467958Y-163617489D02*
G01*
X162468441Y-163673398D01*
X162469827Y-163913238D01*
X162470004Y-164130887D01*
X162469043Y-164317724D01*
X162467013Y-164465130D01*
X162463982Y-164564485D01*
X162460021Y-164607170D01*
X162423078Y-164635155D01*
X162337078Y-164640216D01*
X162230748Y-164629968D01*
X162230748Y-162671099D01*
X162459283Y-162671099D01*
X162467958Y-163617489D01*
G37*
X156329656Y-162660967D02*
X156452085Y-162671099D01*
X156460760Y-163617489D01*
X156461248Y-163673761D01*
X156462669Y-163913418D01*
X156462931Y-164130761D01*
X156462095Y-164317194D01*
X156460224Y-164464122D01*
X156457379Y-164562951D01*
X156453623Y-164605085D01*
X156451013Y-164609863D01*
X156403405Y-164635741D01*
X156322518Y-164646292D01*
X156207226Y-164646292D01*
X156207226Y-162650834D01*
X156329656Y-162660967D01*
G36*
X156329656Y-162660967D02*
G01*
X156452085Y-162671099D01*
X156460760Y-163617489D01*
X156461248Y-163673761D01*
X156462669Y-163913418D01*
X156462931Y-164130761D01*
X156462095Y-164317194D01*
X156460224Y-164464122D01*
X156457379Y-164562951D01*
X156453623Y-164605085D01*
X156451013Y-164609863D01*
X156403405Y-164635741D01*
X156322518Y-164646292D01*
X156207226Y-164646292D01*
X156207226Y-162650834D01*
X156329656Y-162660967D01*
G37*
X152615967Y-163626798D02*
X152615882Y-163711488D01*
X152614684Y-163951478D01*
X152612215Y-164167387D01*
X152608662Y-164350974D01*
X152604212Y-164493994D01*
X152599050Y-164588205D01*
X152593365Y-164625364D01*
X152584530Y-164628668D01*
X152522200Y-164635199D01*
X152411792Y-164639315D01*
X152265492Y-164640682D01*
X152095486Y-164638967D01*
X151620208Y-164629968D01*
X151620208Y-164434081D01*
X152353722Y-164415629D01*
X152371108Y-162671099D01*
X152493537Y-162660967D01*
X152615967Y-162650834D01*
X152615967Y-163626798D01*
G36*
X152615967Y-163626798D02*
G01*
X152615882Y-163711488D01*
X152614684Y-163951478D01*
X152612215Y-164167387D01*
X152608662Y-164350974D01*
X152604212Y-164493994D01*
X152599050Y-164588205D01*
X152593365Y-164625364D01*
X152584530Y-164628668D01*
X152522200Y-164635199D01*
X152411792Y-164639315D01*
X152265492Y-164640682D01*
X152095486Y-164638967D01*
X151620208Y-164629968D01*
X151620208Y-164434081D01*
X152353722Y-164415629D01*
X152371108Y-162671099D01*
X152493537Y-162660967D01*
X152615967Y-162650834D01*
X152615967Y-163626798D01*
G37*
X147726475Y-162660833D02*
X147833062Y-162671099D01*
X147865710Y-164246351D01*
X148257483Y-163527999D01*
X148339741Y-163377872D01*
X148445656Y-163186666D01*
X148540674Y-163017470D01*
X148619765Y-162879148D01*
X148677901Y-162780561D01*
X148710050Y-162730572D01*
X148759094Y-162681279D01*
X148821471Y-162660739D01*
X148922261Y-162661298D01*
X149073679Y-162671099D01*
X149082323Y-163660800D01*
X149090966Y-164650501D01*
X148984379Y-164640235D01*
X148877792Y-164629968D01*
X148869054Y-163798057D01*
X148860315Y-162966146D01*
X148417744Y-163765409D01*
X148405926Y-163786732D01*
X148289105Y-163995362D01*
X148180508Y-164185608D01*
X148084740Y-164349678D01*
X148006403Y-164479783D01*
X147950103Y-164568132D01*
X147920441Y-164606936D01*
X147917123Y-164609338D01*
X147844999Y-164634566D01*
X147751442Y-164639583D01*
X147637175Y-164629968D01*
X147628531Y-163640268D01*
X147619887Y-162650567D01*
X147726475Y-162660833D01*
G36*
X147726475Y-162660833D02*
G01*
X147833062Y-162671099D01*
X147865710Y-164246351D01*
X148257483Y-163527999D01*
X148339741Y-163377872D01*
X148445656Y-163186666D01*
X148540674Y-163017470D01*
X148619765Y-162879148D01*
X148677901Y-162780561D01*
X148710050Y-162730572D01*
X148759094Y-162681279D01*
X148821471Y-162660739D01*
X148922261Y-162661298D01*
X149073679Y-162671099D01*
X149082323Y-163660800D01*
X149090966Y-164650501D01*
X148984379Y-164640235D01*
X148877792Y-164629968D01*
X148869054Y-163798057D01*
X148860315Y-162966146D01*
X148417744Y-163765409D01*
X148405926Y-163786732D01*
X148289105Y-163995362D01*
X148180508Y-164185608D01*
X148084740Y-164349678D01*
X148006403Y-164479783D01*
X147950103Y-164568132D01*
X147920441Y-164606936D01*
X147917123Y-164609338D01*
X147844999Y-164634566D01*
X147751442Y-164639583D01*
X147637175Y-164629968D01*
X147628531Y-163640268D01*
X147619887Y-162650567D01*
X147726475Y-162660833D01*
G37*
X145814376Y-162654779D02*
X146034918Y-162657231D01*
X146193908Y-162664409D01*
X146294802Y-162676565D01*
X146341057Y-162693953D01*
X146349475Y-162716699D01*
X146360386Y-162798616D01*
X146369158Y-162928651D01*
X146375798Y-163096495D01*
X146380309Y-163291842D01*
X146382695Y-163504386D01*
X146382961Y-163723818D01*
X146381110Y-163939834D01*
X146377148Y-164142124D01*
X146371078Y-164320384D01*
X146362905Y-164464305D01*
X146352632Y-164563582D01*
X146340265Y-164607907D01*
X146327528Y-164616111D01*
X146269615Y-164629900D01*
X146165499Y-164638059D01*
X146008869Y-164640947D01*
X145793414Y-164638922D01*
X145286532Y-164629968D01*
X145286532Y-164434081D01*
X146119052Y-164415807D01*
X146119052Y-163699506D01*
X145400800Y-163699506D01*
X145400800Y-163505828D01*
X145751764Y-163496561D01*
X146102728Y-163487295D01*
X146112115Y-163185303D01*
X146121502Y-162883310D01*
X145715672Y-162883310D01*
X145694926Y-162883300D01*
X145528478Y-162881902D01*
X145415438Y-162877197D01*
X145345058Y-162867835D01*
X145306590Y-162852466D01*
X145289285Y-162829739D01*
X145281579Y-162794519D01*
X145287992Y-162715472D01*
X145289449Y-162711174D01*
X145303281Y-162689070D01*
X145332655Y-162673607D01*
X145387521Y-162663614D01*
X145477829Y-162657925D01*
X145613528Y-162655368D01*
X145804568Y-162654776D01*
X145814376Y-162654779D01*
G36*
X145814376Y-162654779D02*
G01*
X146034918Y-162657231D01*
X146193908Y-162664409D01*
X146294802Y-162676565D01*
X146341057Y-162693953D01*
X146349475Y-162716699D01*
X146360386Y-162798616D01*
X146369158Y-162928651D01*
X146375798Y-163096495D01*
X146380309Y-163291842D01*
X146382695Y-163504386D01*
X146382961Y-163723818D01*
X146381110Y-163939834D01*
X146377148Y-164142124D01*
X146371078Y-164320384D01*
X146362905Y-164464305D01*
X146352632Y-164563582D01*
X146340265Y-164607907D01*
X146327528Y-164616111D01*
X146269615Y-164629900D01*
X146165499Y-164638059D01*
X146008869Y-164640947D01*
X145793414Y-164638922D01*
X145286532Y-164629968D01*
X145286532Y-164434081D01*
X146119052Y-164415807D01*
X146119052Y-163699506D01*
X145400800Y-163699506D01*
X145400800Y-163505828D01*
X145751764Y-163496561D01*
X146102728Y-163487295D01*
X146112115Y-163185303D01*
X146121502Y-162883310D01*
X145715672Y-162883310D01*
X145694926Y-162883300D01*
X145528478Y-162881902D01*
X145415438Y-162877197D01*
X145345058Y-162867835D01*
X145306590Y-162852466D01*
X145289285Y-162829739D01*
X145281579Y-162794519D01*
X145287992Y-162715472D01*
X145289449Y-162711174D01*
X145303281Y-162689070D01*
X145332655Y-162673607D01*
X145387521Y-162663614D01*
X145477829Y-162657925D01*
X145613528Y-162655368D01*
X145804568Y-162654776D01*
X145814376Y-162654779D01*
G37*
X165112431Y-163617489D02*
X165112911Y-163673092D01*
X165114265Y-163913086D01*
X165114372Y-164130992D01*
X165113305Y-164318171D01*
X165111141Y-164465980D01*
X165107953Y-164565780D01*
X165103818Y-164608931D01*
X165096591Y-164617610D01*
X165037341Y-164636671D01*
X164932077Y-164646834D01*
X164794618Y-164648785D01*
X164638781Y-164643212D01*
X164478383Y-164630801D01*
X164327241Y-164612240D01*
X164199174Y-164588215D01*
X164107998Y-164559414D01*
X163926600Y-164449859D01*
X163782652Y-164296471D01*
X163681188Y-164098167D01*
X163618869Y-163850102D01*
X163610806Y-163734335D01*
X163886448Y-163734335D01*
X163910112Y-163927864D01*
X163969737Y-164109937D01*
X164066807Y-164246591D01*
X164204697Y-164344300D01*
X164227373Y-164355341D01*
X164329965Y-164393063D01*
X164447425Y-164412346D01*
X164604633Y-164417758D01*
X164858897Y-164417758D01*
X164858897Y-162883310D01*
X164612990Y-162883310D01*
X164426331Y-162892618D01*
X164277628Y-162926035D01*
X164158409Y-162989823D01*
X164051728Y-163090229D01*
X163995265Y-163164100D01*
X163922865Y-163316878D01*
X163887629Y-163502917D01*
X163886448Y-163734335D01*
X163610806Y-163734335D01*
X163600760Y-163590101D01*
X163629620Y-163346453D01*
X163702555Y-163130150D01*
X163816407Y-162950535D01*
X163968020Y-162816950D01*
X163975173Y-162812457D01*
X164128105Y-162736457D01*
X164304699Y-162687634D01*
X164517808Y-162663531D01*
X164780284Y-162661693D01*
X165103756Y-162671099D01*
X165105702Y-162883310D01*
X165112431Y-163617489D01*
G36*
X165112431Y-163617489D02*
G01*
X165112911Y-163673092D01*
X165114265Y-163913086D01*
X165114372Y-164130992D01*
X165113305Y-164318171D01*
X165111141Y-164465980D01*
X165107953Y-164565780D01*
X165103818Y-164608931D01*
X165096591Y-164617610D01*
X165037341Y-164636671D01*
X164932077Y-164646834D01*
X164794618Y-164648785D01*
X164638781Y-164643212D01*
X164478383Y-164630801D01*
X164327241Y-164612240D01*
X164199174Y-164588215D01*
X164107998Y-164559414D01*
X163926600Y-164449859D01*
X163782652Y-164296471D01*
X163681188Y-164098167D01*
X163618869Y-163850102D01*
X163610806Y-163734335D01*
X163886448Y-163734335D01*
X163910112Y-163927864D01*
X163969737Y-164109937D01*
X164066807Y-164246591D01*
X164204697Y-164344300D01*
X164227373Y-164355341D01*
X164329965Y-164393063D01*
X164447425Y-164412346D01*
X164604633Y-164417758D01*
X164858897Y-164417758D01*
X164858897Y-162883310D01*
X164612990Y-162883310D01*
X164426331Y-162892618D01*
X164277628Y-162926035D01*
X164158409Y-162989823D01*
X164051728Y-163090229D01*
X163995265Y-163164100D01*
X163922865Y-163316878D01*
X163887629Y-163502917D01*
X163886448Y-163734335D01*
X163610806Y-163734335D01*
X163600760Y-163590101D01*
X163629620Y-163346453D01*
X163702555Y-163130150D01*
X163816407Y-162950535D01*
X163968020Y-162816950D01*
X163975173Y-162812457D01*
X164128105Y-162736457D01*
X164304699Y-162687634D01*
X164517808Y-162663531D01*
X164780284Y-162661693D01*
X165103756Y-162671099D01*
X165105702Y-162883310D01*
X165112431Y-163617489D01*
G37*
X158394655Y-162687333D02*
X158586516Y-162789979D01*
X158699359Y-162897078D01*
X158815123Y-163078068D01*
X158896236Y-163300088D01*
X158937841Y-163552590D01*
X158938822Y-163799878D01*
X158897561Y-164050050D01*
X158814756Y-164266117D01*
X158693729Y-164441890D01*
X158537799Y-164571180D01*
X158350288Y-164647796D01*
X158244618Y-164665847D01*
X158055395Y-164669959D01*
X157869350Y-164643959D01*
X157706153Y-164591254D01*
X157585478Y-164515256D01*
X157565744Y-164492776D01*
X157529579Y-164421166D01*
X157512684Y-164343086D01*
X157518111Y-164280286D01*
X157548909Y-164254519D01*
X157551220Y-164254634D01*
X157603164Y-164274662D01*
X157674782Y-164318677D01*
X157776751Y-164378891D01*
X157956897Y-164435479D01*
X158137995Y-164438527D01*
X158307800Y-164390362D01*
X158454067Y-164293309D01*
X158564552Y-164149694D01*
X158586015Y-164106793D01*
X158613343Y-164033021D01*
X158629527Y-163946696D01*
X158637283Y-163830258D01*
X158639326Y-163666152D01*
X158638419Y-163536793D01*
X158632723Y-163412270D01*
X158619110Y-163320306D01*
X158594535Y-163242415D01*
X158555951Y-163160111D01*
X158496213Y-163061565D01*
X158373017Y-162938547D01*
X158219538Y-162872186D01*
X158030294Y-162859344D01*
X158009659Y-162860803D01*
X157849010Y-162891158D01*
X157710835Y-162959858D01*
X157660679Y-162991031D01*
X157575871Y-163026512D01*
X157528111Y-163012693D01*
X157513139Y-162949349D01*
X157525844Y-162860616D01*
X157578113Y-162784344D01*
X157682638Y-162716878D01*
X157741356Y-162690119D01*
X157954214Y-162635959D01*
X158177934Y-162635512D01*
X158394655Y-162687333D01*
G36*
X158394655Y-162687333D02*
G01*
X158586516Y-162789979D01*
X158699359Y-162897078D01*
X158815123Y-163078068D01*
X158896236Y-163300088D01*
X158937841Y-163552590D01*
X158938822Y-163799878D01*
X158897561Y-164050050D01*
X158814756Y-164266117D01*
X158693729Y-164441890D01*
X158537799Y-164571180D01*
X158350288Y-164647796D01*
X158244618Y-164665847D01*
X158055395Y-164669959D01*
X157869350Y-164643959D01*
X157706153Y-164591254D01*
X157585478Y-164515256D01*
X157565744Y-164492776D01*
X157529579Y-164421166D01*
X157512684Y-164343086D01*
X157518111Y-164280286D01*
X157548909Y-164254519D01*
X157551220Y-164254634D01*
X157603164Y-164274662D01*
X157674782Y-164318677D01*
X157776751Y-164378891D01*
X157956897Y-164435479D01*
X158137995Y-164438527D01*
X158307800Y-164390362D01*
X158454067Y-164293309D01*
X158564552Y-164149694D01*
X158586015Y-164106793D01*
X158613343Y-164033021D01*
X158629527Y-163946696D01*
X158637283Y-163830258D01*
X158639326Y-163666152D01*
X158638419Y-163536793D01*
X158632723Y-163412270D01*
X158619110Y-163320306D01*
X158594535Y-163242415D01*
X158555951Y-163160111D01*
X158496213Y-163061565D01*
X158373017Y-162938547D01*
X158219538Y-162872186D01*
X158030294Y-162859344D01*
X158009659Y-162860803D01*
X157849010Y-162891158D01*
X157710835Y-162959858D01*
X157660679Y-162991031D01*
X157575871Y-163026512D01*
X157528111Y-163012693D01*
X157513139Y-162949349D01*
X157525844Y-162860616D01*
X157578113Y-162784344D01*
X157682638Y-162716878D01*
X157741356Y-162690119D01*
X157954214Y-162635959D01*
X158177934Y-162635512D01*
X158394655Y-162687333D01*
G37*
X154961626Y-162999379D02*
X154964628Y-163167721D01*
X154966172Y-163387409D01*
X154966609Y-163665414D01*
X154966576Y-163717340D01*
X154965551Y-163954668D01*
X154963232Y-164168760D01*
X154959811Y-164351203D01*
X154955479Y-164493586D01*
X154950426Y-164587498D01*
X154944844Y-164624527D01*
X154943370Y-164625812D01*
X154894923Y-164640319D01*
X154814253Y-164646292D01*
X154705427Y-164646292D01*
X154705427Y-163903782D01*
X154450225Y-163889009D01*
X154366147Y-163881960D01*
X154144328Y-163835080D01*
X153974128Y-163748994D01*
X153854154Y-163622394D01*
X153783009Y-163453977D01*
X153759299Y-163242436D01*
X153761913Y-163185561D01*
X154021132Y-163185561D01*
X154026708Y-163292377D01*
X154033096Y-163346643D01*
X154080919Y-163497595D01*
X154172297Y-163602535D01*
X154311229Y-163666725D01*
X154316399Y-163668137D01*
X154425690Y-163689223D01*
X154538225Y-163698293D01*
X154631662Y-163694686D01*
X154683662Y-163677740D01*
X154691947Y-163640207D01*
X154698950Y-163550448D01*
X154703686Y-163422368D01*
X154705427Y-163269643D01*
X154705427Y-162883310D01*
X154473627Y-162883310D01*
X154423184Y-162883466D01*
X154317530Y-162887790D01*
X154247496Y-162903537D01*
X154191221Y-162937956D01*
X154126842Y-162998296D01*
X154071603Y-163056290D01*
X154032974Y-163116034D01*
X154021132Y-163185561D01*
X153761913Y-163185561D01*
X153764624Y-163126571D01*
X153801397Y-162971445D01*
X153879408Y-162851186D01*
X154005997Y-162751175D01*
X154053149Y-162724684D01*
X154121607Y-162698121D01*
X154208260Y-162680525D01*
X154328807Y-162669015D01*
X154498950Y-162660711D01*
X154633129Y-162656887D01*
X154777155Y-162658270D01*
X154869382Y-162668250D01*
X154917510Y-162687318D01*
X154928045Y-162699996D01*
X154940377Y-162732690D01*
X154949851Y-162788836D01*
X154956817Y-162875408D01*
X154957124Y-162883310D01*
X154961626Y-162999379D01*
G36*
X154961626Y-162999379D02*
G01*
X154964628Y-163167721D01*
X154966172Y-163387409D01*
X154966609Y-163665414D01*
X154966576Y-163717340D01*
X154965551Y-163954668D01*
X154963232Y-164168760D01*
X154959811Y-164351203D01*
X154955479Y-164493586D01*
X154950426Y-164587498D01*
X154944844Y-164624527D01*
X154943370Y-164625812D01*
X154894923Y-164640319D01*
X154814253Y-164646292D01*
X154705427Y-164646292D01*
X154705427Y-163903782D01*
X154450225Y-163889009D01*
X154366147Y-163881960D01*
X154144328Y-163835080D01*
X153974128Y-163748994D01*
X153854154Y-163622394D01*
X153783009Y-163453977D01*
X153759299Y-163242436D01*
X153761913Y-163185561D01*
X154021132Y-163185561D01*
X154026708Y-163292377D01*
X154033096Y-163346643D01*
X154080919Y-163497595D01*
X154172297Y-163602535D01*
X154311229Y-163666725D01*
X154316399Y-163668137D01*
X154425690Y-163689223D01*
X154538225Y-163698293D01*
X154631662Y-163694686D01*
X154683662Y-163677740D01*
X154691947Y-163640207D01*
X154698950Y-163550448D01*
X154703686Y-163422368D01*
X154705427Y-163269643D01*
X154705427Y-162883310D01*
X154473627Y-162883310D01*
X154423184Y-162883466D01*
X154317530Y-162887790D01*
X154247496Y-162903537D01*
X154191221Y-162937956D01*
X154126842Y-162998296D01*
X154071603Y-163056290D01*
X154032974Y-163116034D01*
X154021132Y-163185561D01*
X153761913Y-163185561D01*
X153764624Y-163126571D01*
X153801397Y-162971445D01*
X153879408Y-162851186D01*
X154005997Y-162751175D01*
X154053149Y-162724684D01*
X154121607Y-162698121D01*
X154208260Y-162680525D01*
X154328807Y-162669015D01*
X154498950Y-162660711D01*
X154633129Y-162656887D01*
X154777155Y-162658270D01*
X154869382Y-162668250D01*
X154917510Y-162687318D01*
X154928045Y-162699996D01*
X154940377Y-162732690D01*
X154949851Y-162788836D01*
X154956817Y-162875408D01*
X154957124Y-162883310D01*
X154961626Y-162999379D01*
G37*
X160569122Y-162631877D02*
X160665380Y-162646681D01*
X160842339Y-162710107D01*
X160969422Y-162815336D01*
X161046077Y-162961799D01*
X161071751Y-163148930D01*
X161071701Y-163159409D01*
X161057855Y-163297144D01*
X161013799Y-163411095D01*
X160931324Y-163511457D01*
X160802221Y-163608427D01*
X160618283Y-163712201D01*
X160576322Y-163734206D01*
X160399495Y-163838044D01*
X160279731Y-163932090D01*
X160211747Y-164021260D01*
X160190260Y-164110470D01*
X160192267Y-164148378D01*
X160233993Y-164274064D01*
X160322175Y-164367761D01*
X160446829Y-164426186D01*
X160597972Y-164446056D01*
X160765621Y-164424087D01*
X160939792Y-164356995D01*
X160983487Y-164335935D01*
X161061885Y-164307535D01*
X161106550Y-164304820D01*
X161111144Y-164308359D01*
X161132748Y-164361057D01*
X161133370Y-164437173D01*
X161112061Y-164502652D01*
X161109427Y-164506351D01*
X161045629Y-164558593D01*
X160943481Y-164610095D01*
X160826892Y-164648620D01*
X160636489Y-164675603D01*
X160426856Y-164660265D01*
X160239843Y-164598390D01*
X160086250Y-164493769D01*
X159976876Y-164350194D01*
X159971011Y-164338078D01*
X159937654Y-164214800D01*
X159930175Y-164068767D01*
X159947881Y-163927832D01*
X159990080Y-163819849D01*
X160073448Y-163724770D01*
X160236766Y-163606298D01*
X160463980Y-163490354D01*
X160583396Y-163431459D01*
X160713307Y-163340158D01*
X160787179Y-163240997D01*
X160810568Y-163128169D01*
X160800786Y-163052629D01*
X160743677Y-162948617D01*
X160645003Y-162878974D01*
X160515671Y-162847564D01*
X160366587Y-162858251D01*
X160208658Y-162914901D01*
X160175184Y-162930900D01*
X160098499Y-162958916D01*
X160054840Y-162961945D01*
X160035111Y-162931595D01*
X160028328Y-162857763D01*
X160046194Y-162773391D01*
X160088420Y-162728554D01*
X160180909Y-162684296D01*
X160303980Y-162650150D01*
X160439446Y-162631036D01*
X160569122Y-162631877D01*
G36*
X160569122Y-162631877D02*
G01*
X160665380Y-162646681D01*
X160842339Y-162710107D01*
X160969422Y-162815336D01*
X161046077Y-162961799D01*
X161071751Y-163148930D01*
X161071701Y-163159409D01*
X161057855Y-163297144D01*
X161013799Y-163411095D01*
X160931324Y-163511457D01*
X160802221Y-163608427D01*
X160618283Y-163712201D01*
X160576322Y-163734206D01*
X160399495Y-163838044D01*
X160279731Y-163932090D01*
X160211747Y-164021260D01*
X160190260Y-164110470D01*
X160192267Y-164148378D01*
X160233993Y-164274064D01*
X160322175Y-164367761D01*
X160446829Y-164426186D01*
X160597972Y-164446056D01*
X160765621Y-164424087D01*
X160939792Y-164356995D01*
X160983487Y-164335935D01*
X161061885Y-164307535D01*
X161106550Y-164304820D01*
X161111144Y-164308359D01*
X161132748Y-164361057D01*
X161133370Y-164437173D01*
X161112061Y-164502652D01*
X161109427Y-164506351D01*
X161045629Y-164558593D01*
X160943481Y-164610095D01*
X160826892Y-164648620D01*
X160636489Y-164675603D01*
X160426856Y-164660265D01*
X160239843Y-164598390D01*
X160086250Y-164493769D01*
X159976876Y-164350194D01*
X159971011Y-164338078D01*
X159937654Y-164214800D01*
X159930175Y-164068767D01*
X159947881Y-163927832D01*
X159990080Y-163819849D01*
X160073448Y-163724770D01*
X160236766Y-163606298D01*
X160463980Y-163490354D01*
X160583396Y-163431459D01*
X160713307Y-163340158D01*
X160787179Y-163240997D01*
X160810568Y-163128169D01*
X160800786Y-163052629D01*
X160743677Y-162948617D01*
X160645003Y-162878974D01*
X160515671Y-162847564D01*
X160366587Y-162858251D01*
X160208658Y-162914901D01*
X160175184Y-162930900D01*
X160098499Y-162958916D01*
X160054840Y-162961945D01*
X160035111Y-162931595D01*
X160028328Y-162857763D01*
X160046194Y-162773391D01*
X160088420Y-162728554D01*
X160180909Y-162684296D01*
X160303980Y-162650150D01*
X160439446Y-162631036D01*
X160569122Y-162631877D01*
G37*
D14*
X58261250Y-94773750D03*
D15*
X63341250Y-94773750D03*
D14*
X68421250Y-94773750D03*
D16*
X65881250Y-89693750D03*
X59531250Y-92233750D03*
D14*
X77311250Y-94773750D03*
D15*
X82391250Y-94773750D03*
D14*
X87471250Y-94773750D03*
D16*
X84931250Y-89693750D03*
X78581250Y-92233750D03*
D14*
X96361250Y-94773750D03*
D15*
X101441250Y-94773750D03*
D14*
X106521250Y-94773750D03*
D16*
X103981250Y-89693750D03*
X97631250Y-92233750D03*
D14*
X115411250Y-94773750D03*
D15*
X120491250Y-94773750D03*
D14*
X125571250Y-94773750D03*
D16*
X123031250Y-89693750D03*
X116681250Y-92233750D03*
D14*
X134461250Y-94773750D03*
D15*
X139541250Y-94773750D03*
D14*
X144621250Y-94773750D03*
D16*
X142081250Y-89693750D03*
X135731250Y-92233750D03*
D14*
X153511250Y-94773750D03*
D15*
X158591250Y-94773750D03*
D14*
X163671250Y-94773750D03*
D16*
X161131250Y-89693750D03*
X154781250Y-92233750D03*
D14*
X172561250Y-94773750D03*
D15*
X177641250Y-94773750D03*
D14*
X182721250Y-94773750D03*
D16*
X180181250Y-89693750D03*
X173831250Y-92233750D03*
D14*
X191611250Y-94773750D03*
D15*
X196691250Y-94773750D03*
D14*
X201771250Y-94773750D03*
D16*
X199231250Y-89693750D03*
X192881250Y-92233750D03*
D14*
X210661250Y-94773750D03*
D15*
X215741250Y-94773750D03*
D14*
X220821250Y-94773750D03*
D16*
X218281250Y-89693750D03*
X211931250Y-92233750D03*
D14*
X229711250Y-94773750D03*
D15*
X234791250Y-94773750D03*
D14*
X239871250Y-94773750D03*
D16*
X237331250Y-89693750D03*
X230981250Y-92233750D03*
D14*
X248761250Y-94773750D03*
D15*
X253841250Y-94773750D03*
D14*
X258921250Y-94773750D03*
D16*
X256381250Y-89693750D03*
X250031250Y-92233750D03*
D14*
X267811250Y-94773750D03*
D15*
X272891250Y-94773750D03*
D14*
X277971250Y-94773750D03*
D16*
X275431250Y-89693750D03*
X269081250Y-92233750D03*
D14*
X286861250Y-94773750D03*
D15*
X291941250Y-94773750D03*
D14*
X297021250Y-94773750D03*
D16*
X294481250Y-89693750D03*
X288131250Y-92233750D03*
D14*
X344011250Y-94773750D03*
D15*
X349091250Y-94773750D03*
D14*
X354171250Y-94773750D03*
D16*
X351631250Y-89693750D03*
X345281250Y-92233750D03*
D14*
X86836250Y-113823750D03*
D15*
X91916250Y-113823750D03*
D14*
X96996250Y-113823750D03*
D16*
X94456250Y-108743750D03*
X88106250Y-111283750D03*
D14*
X105886250Y-113823750D03*
D15*
X110966250Y-113823750D03*
D14*
X116046250Y-113823750D03*
D16*
X113506250Y-108743750D03*
X107156250Y-111283750D03*
D14*
X124936250Y-113823750D03*
D15*
X130016250Y-113823750D03*
D14*
X135096250Y-113823750D03*
D16*
X132556250Y-108743750D03*
X126206250Y-111283750D03*
D14*
X143986250Y-113823750D03*
D15*
X149066250Y-113823750D03*
D14*
X154146250Y-113823750D03*
D16*
X151606250Y-108743750D03*
X145256250Y-111283750D03*
D14*
X163036250Y-113823750D03*
D15*
X168116250Y-113823750D03*
D14*
X173196250Y-113823750D03*
D16*
X170656250Y-108743750D03*
X164306250Y-111283750D03*
D14*
X182086250Y-113823750D03*
D15*
X187166250Y-113823750D03*
D14*
X192246250Y-113823750D03*
D16*
X189706250Y-108743750D03*
X183356250Y-111283750D03*
D14*
X201136250Y-113823750D03*
D15*
X206216250Y-113823750D03*
D14*
X211296250Y-113823750D03*
D16*
X208756250Y-108743750D03*
X202406250Y-111283750D03*
D14*
X220186250Y-113823750D03*
D15*
X225266250Y-113823750D03*
D14*
X230346250Y-113823750D03*
D16*
X227806250Y-108743750D03*
X221456250Y-111283750D03*
D14*
X239236250Y-113823750D03*
D15*
X244316250Y-113823750D03*
D14*
X249396250Y-113823750D03*
D16*
X246856250Y-108743750D03*
X240506250Y-111283750D03*
D14*
X258286250Y-113823750D03*
D15*
X263366250Y-113823750D03*
D14*
X268446250Y-113823750D03*
D16*
X265906250Y-108743750D03*
X259556250Y-111283750D03*
D14*
X277336250Y-113823750D03*
D15*
X282416250Y-113823750D03*
D14*
X287496250Y-113823750D03*
D16*
X284956250Y-108743750D03*
X278606250Y-111283750D03*
D14*
X296386250Y-113823750D03*
D15*
X301466250Y-113823750D03*
D14*
X306546250Y-113823750D03*
D16*
X304006250Y-108743750D03*
X297656250Y-111283750D03*
D14*
X344011250Y-113823750D03*
D15*
X349091250Y-113823750D03*
D14*
X354171250Y-113823750D03*
D16*
X351631250Y-108743750D03*
X345281250Y-111283750D03*
D14*
X91598750Y-132873750D03*
D15*
X96678750Y-132873750D03*
D14*
X101758750Y-132873750D03*
D16*
X99218750Y-127793750D03*
X92868750Y-130333750D03*
D14*
X110648750Y-132873750D03*
D15*
X115728750Y-132873750D03*
D14*
X120808750Y-132873750D03*
D16*
X118268750Y-127793750D03*
X111918750Y-130333750D03*
D14*
X129698750Y-132873750D03*
D15*
X134778750Y-132873750D03*
D14*
X139858750Y-132873750D03*
D16*
X137318750Y-127793750D03*
X130968750Y-130333750D03*
D14*
X148748250Y-132873750D03*
D15*
X153828250Y-132873750D03*
D14*
X158908250Y-132873750D03*
D16*
X156368250Y-127793750D03*
X150018250Y-130333750D03*
D14*
X167798250Y-132873750D03*
D15*
X172878250Y-132873750D03*
D14*
X177958250Y-132873750D03*
D16*
X175418250Y-127793750D03*
X169068250Y-130333750D03*
D14*
X186848250Y-132873750D03*
D15*
X191928250Y-132873750D03*
D14*
X197008250Y-132873750D03*
D16*
X194468250Y-127793750D03*
X188118250Y-130333750D03*
D14*
X205898250Y-132873750D03*
D15*
X210978250Y-132873750D03*
D14*
X216058250Y-132873750D03*
D16*
X213518250Y-127793750D03*
X207168250Y-130333750D03*
D14*
X224948250Y-132873750D03*
D15*
X230028250Y-132873750D03*
D14*
X235108250Y-132873750D03*
D16*
X232568250Y-127793750D03*
X226218250Y-130333750D03*
D14*
X243998250Y-132873750D03*
D15*
X249078250Y-132873750D03*
D14*
X254158250Y-132873750D03*
D16*
X251618250Y-127793750D03*
X245268250Y-130333750D03*
D14*
X263048250Y-132873750D03*
D15*
X268128250Y-132873750D03*
D14*
X273208250Y-132873750D03*
D16*
X270668250Y-127793750D03*
X264318250Y-130333750D03*
D14*
X282098250Y-132873750D03*
D15*
X287178250Y-132873750D03*
D14*
X292258250Y-132873750D03*
D16*
X289718250Y-127793750D03*
X283368250Y-130333750D03*
D14*
X344011250Y-132873750D03*
D15*
X349091250Y-132873750D03*
D14*
X354171250Y-132873750D03*
D16*
X351631250Y-127793750D03*
X345281250Y-130333750D03*
D14*
X101123750Y-151923750D03*
D15*
X106203750Y-151923750D03*
D14*
X111283750Y-151923750D03*
D16*
X108743750Y-146843750D03*
X102393750Y-149383750D03*
D14*
X120173750Y-151923750D03*
D15*
X125253750Y-151923750D03*
D14*
X130333750Y-151923750D03*
D16*
X127793750Y-146843750D03*
X121443750Y-149383750D03*
D14*
X139223750Y-151923750D03*
D15*
X144303750Y-151923750D03*
D14*
X149383750Y-151923750D03*
D16*
X146843750Y-146843750D03*
X140493750Y-149383750D03*
D14*
X158274250Y-151923750D03*
D15*
X163354250Y-151923750D03*
D14*
X168434250Y-151923750D03*
D16*
X165894250Y-146843750D03*
X159544250Y-149383750D03*
D14*
X177324250Y-151923750D03*
D15*
X182404250Y-151923750D03*
D14*
X187484250Y-151923750D03*
D16*
X184944250Y-146843750D03*
X178594250Y-149383750D03*
D14*
X196374250Y-151923750D03*
D15*
X201454250Y-151923750D03*
D14*
X206534250Y-151923750D03*
D16*
X203994250Y-146843750D03*
X197644250Y-149383750D03*
D14*
X215424250Y-151923750D03*
D15*
X220504250Y-151923750D03*
D14*
X225584250Y-151923750D03*
D16*
X223044250Y-146843750D03*
X216694250Y-149383750D03*
D14*
X234474250Y-151923750D03*
D15*
X239554250Y-151923750D03*
D14*
X244634250Y-151923750D03*
D16*
X242094250Y-146843750D03*
X235744250Y-149383750D03*
D14*
X253524250Y-151923750D03*
D15*
X258604250Y-151923750D03*
D14*
X263684250Y-151923750D03*
D16*
X261144250Y-146843750D03*
X254794250Y-149383750D03*
D14*
X272574250Y-151923750D03*
D15*
X277654250Y-151923750D03*
D14*
X282734250Y-151923750D03*
D16*
X280194250Y-146843750D03*
X273844250Y-149383750D03*
D14*
X324961250Y-151923750D03*
D15*
X330041250Y-151923750D03*
D14*
X335121250Y-151923750D03*
D16*
X332581250Y-146843750D03*
X326231250Y-149383750D03*
D14*
X344011250Y-151923750D03*
D15*
X349091250Y-151923750D03*
D14*
X354171250Y-151923750D03*
D16*
X351631250Y-146843750D03*
X345281250Y-149383750D03*
D14*
X179705250Y-170973750D03*
D15*
X184785250Y-170973750D03*
D14*
X189865250Y-170973750D03*
D16*
X187325250Y-165893750D03*
X180975250Y-168433750D03*
D14*
X305911250Y-170973750D03*
D15*
X310991250Y-170973750D03*
D14*
X316071250Y-170973750D03*
D16*
X313531250Y-165893750D03*
X307181250Y-168433750D03*
D14*
X324961250Y-170973750D03*
D15*
X330041250Y-170973750D03*
D14*
X335121250Y-170973750D03*
D16*
X332581250Y-165893750D03*
X326231250Y-168433750D03*
D14*
X344011250Y-170973750D03*
D15*
X349091250Y-170973750D03*
D14*
X354171250Y-170973750D03*
D16*
X351631250Y-165893750D03*
X345281250Y-168433750D03*
D17*
X308616250Y-87773750D03*
D15*
X308616250Y-103013750D03*
D14*
X315436250Y-94773750D03*
D15*
X320516250Y-94773750D03*
D14*
X325596250Y-94773750D03*
D17*
X332416250Y-87773750D03*
D15*
X332416250Y-103013750D03*
D16*
X323056250Y-89693750D03*
X316706250Y-92233750D03*
D14*
X320198250Y-113823750D03*
D15*
X325278250Y-113823750D03*
D14*
X330358250Y-113823750D03*
D16*
X327818250Y-108743750D03*
X321468250Y-111283750D03*
D14*
X65405050Y-132863620D03*
D15*
X70485050Y-132863620D03*
D14*
X75565050Y-132863620D03*
D16*
X73025050Y-127783620D03*
X66675050Y-130323620D03*
D17*
X306235250Y-125873750D03*
D15*
X306235250Y-141113750D03*
D14*
X313055250Y-132873750D03*
D15*
X318135250Y-132873750D03*
D14*
X323215250Y-132873750D03*
D17*
X330035250Y-125873750D03*
D15*
X330035250Y-141113750D03*
D16*
X320675250Y-127793750D03*
X314325250Y-130333750D03*
D17*
X63347450Y-144923750D03*
D15*
X63347450Y-160163750D03*
D14*
X70167450Y-151923750D03*
D15*
X75247450Y-151923750D03*
D14*
X80327450Y-151923750D03*
D17*
X87147450Y-144923750D03*
D15*
X87147450Y-160163750D03*
D16*
X77787450Y-146843750D03*
X71437450Y-149383750D03*
D14*
X298767250Y-151923750D03*
D15*
X303847250Y-151923750D03*
D14*
X308927250Y-151923750D03*
D16*
X306387250Y-146843750D03*
X300037250Y-149383750D03*
D14*
X60642450Y-170963620D03*
D15*
X65722450Y-170963620D03*
D14*
X70802450Y-170963620D03*
D16*
X68262450Y-165883620D03*
X61912450Y-168423620D03*
D14*
X84455050Y-170973750D03*
D15*
X89535050Y-170973750D03*
D14*
X94615050Y-170973750D03*
D16*
X92075050Y-165893750D03*
X85725050Y-168433750D03*
D14*
X108267450Y-170963620D03*
D15*
X113347450Y-170963620D03*
D14*
X118427450Y-170963620D03*
D16*
X115887450Y-165883620D03*
X109537450Y-168423620D03*
D18*
X57766382Y-80444750D03*
X57766382Y-61694750D03*
X354660309Y-61694750D03*
X354660309Y-80444750D03*
X96565888Y-161146960D03*
X315860803Y-161146960D03*
X113754723Y-104302994D03*
X298671968Y-104302994D03*
X206213345Y-104302994D03*
D19*
X120517573Y-162726640D03*
D20*
X120517573Y-177966640D03*
D19*
X234817573Y-162726640D03*
D20*
X234817573Y-177966640D03*
D18*
X206213345Y-166958110D03*
D14*
X286901528Y-170963620D03*
D15*
X291981528Y-170963620D03*
D14*
X297061528Y-170963620D03*
D16*
X294521528Y-165883620D03*
X288171528Y-168423620D03*
D21*
X63600284Y-67475612D03*
D22*
X63600284Y-72555612D03*
D21*
X85786525Y-72436199D03*
D22*
X85786525Y-77516199D03*
D21*
X88955988Y-67475612D03*
D22*
X88955988Y-72555612D03*
D21*
X101633840Y-67475612D03*
D22*
X101633840Y-72555612D03*
D21*
X114311692Y-67475612D03*
D22*
X114311692Y-72555612D03*
D21*
X126989544Y-67475612D03*
D22*
X126989544Y-72555612D03*
D21*
X139667396Y-67475612D03*
D22*
X139667396Y-72555612D03*
D21*
X152345248Y-67475612D03*
D22*
X152345248Y-72555612D03*
D21*
X165023100Y-67475612D03*
D22*
X165023100Y-72555612D03*
D21*
X177700952Y-67475612D03*
D22*
X177700952Y-72555612D03*
D21*
X190378804Y-67475612D03*
D22*
X190378804Y-72555612D03*
D21*
X203056656Y-67475612D03*
D22*
X203056656Y-72555612D03*
D21*
X215734508Y-67475612D03*
D22*
X215734508Y-72555612D03*
D21*
X228342376Y-67475612D03*
D22*
X228342376Y-72555612D03*
D21*
X275541929Y-72436199D03*
D22*
X275541929Y-77516199D03*
D21*
X66769747Y-69129141D03*
D22*
X66769747Y-74209141D03*
D21*
X82617062Y-70782670D03*
D22*
X82617062Y-75862670D03*
D21*
X92125451Y-69129141D03*
D22*
X92125451Y-74209141D03*
D21*
X104803303Y-69129141D03*
D22*
X104803303Y-74209141D03*
D21*
X117481155Y-69129141D03*
D22*
X117481155Y-74209141D03*
D21*
X130159007Y-69129141D03*
D22*
X130159007Y-74209141D03*
D21*
X142836859Y-69129141D03*
D22*
X142836859Y-74209141D03*
D21*
X155514711Y-69129141D03*
D22*
X155514711Y-74209141D03*
D21*
X168192563Y-69129141D03*
D22*
X168192563Y-74209141D03*
D21*
X180870415Y-69129141D03*
D22*
X180870415Y-74209141D03*
D21*
X193548267Y-69129141D03*
D22*
X193548267Y-74209141D03*
D21*
X206226119Y-69129141D03*
D22*
X206226119Y-74209141D03*
D21*
X218886475Y-69129141D03*
D22*
X218886475Y-74209141D03*
D21*
X231493149Y-69129141D03*
D22*
X231493149Y-74209141D03*
D21*
X272453205Y-70782670D03*
D22*
X272453205Y-75862670D03*
D21*
X69939210Y-70782670D03*
D22*
X69939210Y-75862670D03*
D21*
X79447599Y-69129141D03*
D22*
X79447599Y-74209141D03*
D21*
X95294914Y-70782670D03*
D22*
X95294914Y-75862670D03*
D21*
X107972766Y-70782670D03*
D22*
X107972766Y-75862670D03*
D21*
X120650618Y-70782670D03*
D22*
X120650618Y-75862670D03*
D21*
X133328470Y-70782670D03*
D22*
X133328470Y-75862670D03*
D21*
X146006322Y-70782670D03*
D22*
X146006322Y-75862670D03*
D21*
X158684174Y-70782670D03*
D22*
X158684174Y-75862670D03*
D21*
X171362026Y-70782670D03*
D22*
X171362026Y-75862670D03*
D21*
X184039878Y-70782670D03*
D22*
X184039878Y-75862670D03*
D21*
X196717730Y-70782670D03*
D22*
X196717730Y-75862670D03*
D21*
X209395582Y-70782670D03*
D22*
X209395582Y-75862670D03*
D21*
X234643922Y-70782670D03*
D22*
X234643922Y-75862670D03*
D21*
X269364481Y-69129141D03*
D22*
X269364481Y-74209141D03*
D21*
X73108673Y-72436199D03*
D22*
X73108673Y-77516199D03*
D21*
X98464377Y-72436199D03*
D22*
X98464377Y-77516199D03*
D21*
X111142229Y-72436199D03*
D22*
X111142229Y-77516199D03*
D21*
X123820081Y-72436199D03*
D22*
X123820081Y-77516199D03*
D21*
X136497933Y-72436199D03*
D22*
X136497933Y-77516199D03*
D21*
X149175785Y-72436199D03*
D22*
X149175785Y-77516199D03*
D21*
X161853637Y-72436199D03*
D22*
X161853637Y-77516199D03*
D21*
X174531489Y-72436199D03*
D22*
X174531489Y-77516199D03*
D21*
X187209341Y-72436199D03*
D22*
X187209341Y-77516199D03*
D21*
X199887193Y-72436199D03*
D22*
X199887193Y-77516199D03*
D21*
X212565045Y-72436199D03*
D22*
X212565045Y-77516199D03*
D21*
X222038442Y-70782670D03*
D22*
X222038442Y-75862670D03*
D21*
X237794695Y-72436199D03*
D22*
X237794695Y-77516199D03*
D21*
X266089606Y-67475612D03*
D22*
X266089606Y-72555612D03*
D21*
X259788058Y-70782670D03*
D22*
X259788058Y-75862670D03*
D21*
X76278136Y-67475612D03*
D22*
X76278136Y-72555612D03*
D21*
X256637284Y-69129141D03*
D22*
X256637284Y-74209141D03*
D21*
X253486511Y-67475612D03*
D22*
X253486511Y-72555612D03*
D21*
X250335738Y-72436199D03*
D22*
X250335738Y-77516199D03*
D21*
X225190409Y-72436199D03*
D22*
X225190409Y-77516199D03*
D21*
X244096241Y-69129141D03*
D22*
X244096241Y-74209141D03*
D21*
X240945468Y-67475612D03*
D22*
X240945468Y-72555612D03*
D21*
X262938832Y-72436199D03*
D22*
X262938832Y-77516199D03*
D21*
X247184965Y-70782670D03*
D22*
X247184965Y-75862670D03*
D23*
X295106316Y-73152052D03*
D24*
X290026316Y-73152052D03*
D23*
X295106316Y-75645517D03*
D24*
X290026316Y-75645517D03*
D23*
X290026316Y-70580211D03*
D24*
X295106316Y-70580211D03*
D25*
X226485732Y-59836074D03*
X232985732Y-59836074D03*
X226485732Y-64336074D03*
X232985732Y-64336074D03*
D26*
X284127716Y-61970830D03*
D27*
X286667716Y-61970830D03*
D23*
X290026316Y-65567034D03*
D24*
X295106316Y-65567034D03*
D25*
X238485732Y-59836074D03*
X244985732Y-59836074D03*
X238485732Y-64336074D03*
X244985732Y-64336074D03*
D23*
X270047614Y-64450838D03*
X270047614Y-59350838D03*
D28*
X284477676Y-70404866D03*
D29*
X284477676Y-68904866D03*
D30*
X325125530Y-58926178D03*
X330125530Y-58926178D03*
X320471062Y-78716416D03*
X325471062Y-78716416D03*
D14*
X248790884Y-170963620D03*
D15*
X253870884Y-170963620D03*
D14*
X258950884Y-170963620D03*
D16*
X256410884Y-165883620D03*
X250060884Y-168423620D03*
D14*
X267846206Y-170973750D03*
D15*
X272926206Y-170973750D03*
D14*
X278006206Y-170973750D03*
D16*
X275466206Y-165893750D03*
X269116206Y-168433750D03*
D31*
X280523468Y-66391022D03*
X279673468Y-66391022D03*
X278823468Y-66391022D03*
X277973468Y-66391022D03*
X277123468Y-66391022D03*
X276273468Y-66391022D03*
X275423468Y-66391022D03*
X274573468Y-66391022D03*
X274568468Y-65066022D03*
X275418468Y-65066022D03*
X276268468Y-65066022D03*
X277118468Y-65066022D03*
X277968468Y-65066022D03*
X278818468Y-65066022D03*
X279668468Y-65066022D03*
X280523468Y-65066022D03*
D32*
X281873468Y-65411022D03*
D33*
X281873468Y-62031022D03*
D32*
X273223468Y-65411022D03*
D33*
X273223468Y-62031022D03*
D30*
X341906112Y-82006040D03*
X341906112Y-79506040D03*
X327680238Y-82006040D03*
X327680238Y-79506040D03*
D21*
X286174982Y-73162196D03*
D22*
X286174982Y-78242196D03*
D21*
X283305310Y-73162196D03*
D22*
X283305310Y-78242196D03*
D23*
X295106316Y-78138982D03*
D24*
X290026316Y-78138982D03*
D34*
X337251644Y-80256240D03*
X332371644Y-80256240D03*
D23*
X295106316Y-63073204D03*
D24*
X290026316Y-63073204D03*
D23*
X290026316Y-68060499D03*
D24*
X295106316Y-68060499D03*
D19*
X134811423Y-162726640D03*
D20*
X134811423Y-177966640D03*
D19*
X234811223Y-162726640D03*
D20*
X234811223Y-177966640D03*
D35*
X255293830Y-60350870D03*
D14*
X255293830Y-62890870D03*
X252753830Y-60350870D03*
X252753830Y-62890870D03*
X250213830Y-60350870D03*
X250213830Y-62890870D03*
X60642500Y-132863620D03*
D15*
X65722500Y-132863620D03*
D14*
X70802500Y-132863620D03*
D16*
X68262500Y-127783620D03*
X61912500Y-130323620D03*
D14*
X63023700Y-170963620D03*
D15*
X68103700Y-170963620D03*
D14*
X73183700Y-170963620D03*
D16*
X70643700Y-165883620D03*
X64293700Y-168423620D03*
D14*
X91623031Y-170969819D03*
D15*
X96703031Y-170969819D03*
D14*
X101783031Y-170969819D03*
D16*
X99243031Y-165889819D03*
X92893031Y-168429819D03*
D14*
X172587573Y-170981640D03*
D15*
X177667573Y-170981640D03*
D14*
X182747573Y-170981640D03*
D16*
X180207573Y-165901640D03*
X173857573Y-168441640D03*
D14*
X253563936Y-170973750D03*
D15*
X258643936Y-170973750D03*
D14*
X263723936Y-170973750D03*
D16*
X261183936Y-165893750D03*
X254833936Y-168433750D03*
D14*
X282120128Y-170973750D03*
D15*
X287200128Y-170973750D03*
D14*
X292280128Y-170973750D03*
D16*
X289740128Y-165893750D03*
X283390128Y-168433750D03*
D14*
X63023750Y-113823750D03*
D15*
X68103750Y-113823750D03*
D14*
X73183750Y-113823750D03*
D16*
X70643750Y-108743750D03*
X64293750Y-111283750D03*
D21*
X299753430Y-76389182D03*
D22*
X302293430Y-76389182D03*
X304833430Y-76389182D03*
X307373430Y-76389182D03*
X309913430Y-76389182D03*
X312453430Y-76389182D03*
X314993430Y-76389182D03*
X317533430Y-76389182D03*
X320073430Y-76389182D03*
X322613430Y-76389182D03*
X325153430Y-76389182D03*
X327693430Y-76389182D03*
X330233430Y-76389182D03*
X332773430Y-76389182D03*
X335313430Y-76389182D03*
X337853430Y-76389182D03*
X340393430Y-76389182D03*
X342933430Y-76389182D03*
X345473430Y-76389182D03*
X348013430Y-76389182D03*
X348013430Y-61149182D03*
X345473430Y-61149182D03*
X342933430Y-61149182D03*
X340393430Y-61149182D03*
X337853430Y-61149182D03*
X335313430Y-61149182D03*
X332773430Y-61149182D03*
X330233430Y-61149182D03*
X327693430Y-61149182D03*
X325153430Y-61149182D03*
X322613430Y-61149182D03*
X320073430Y-61149182D03*
X317533430Y-61149182D03*
X314993430Y-61149182D03*
X312453430Y-61149182D03*
X309913430Y-61149182D03*
X307373430Y-61149182D03*
X304833430Y-61149182D03*
X302293430Y-61149182D03*
X299753430Y-61149182D03*
D18*
X206213345Y-80444750D03*
X206213345Y-61694750D03*
D21*
X96678750Y-148234400D03*
D22*
X96678750Y-153314400D03*
D14*
X82073750Y-151923750D03*
D15*
X87153750Y-151923750D03*
D14*
X92233750Y-151923750D03*
D16*
X89693750Y-146843750D03*
X83343750Y-149383750D03*
D15*
X319420000Y-111448750D03*
X319420000Y-135248750D03*
D14*
X322580000Y-123348750D03*
D15*
X327660000Y-123348750D03*
D14*
X332740000Y-123348750D03*
D17*
X334660000Y-111448750D03*
X334660000Y-135248750D03*
D16*
X330200000Y-118268750D03*
X323850000Y-120808750D03*
D14*
X301148750Y-132873750D03*
D15*
X306228750Y-132873750D03*
D14*
X311308750Y-132873750D03*
D16*
X308768750Y-127793750D03*
X302418750Y-130333750D03*
D14*
X60642500Y-151923750D03*
D15*
X65722500Y-151923750D03*
D14*
X70802500Y-151923750D03*
D16*
X68262500Y-146843750D03*
X61912500Y-149383750D03*
M02*
